<?xml version="1.0" standalone="no"?>
<!DOCTYPE svg PUBLIC "-//W3C//DTD SVG 20010904//EN"
 "http://www.w3.org/TR/2001/REC-SVG-20010904/DTD/svg10.dtd">
<svg version="1.0" xmlns="http://www.w3.org/2000/svg"
 width="1800.000000pt" height="1080.000000pt" viewBox="0 0 1800.000000 1080.000000"
 preserveAspectRatio="xMidYMid meet">

<g transform="translate(0.000000,1080.000000) scale(0.100000,-0.100000)"
fill="#000000" stroke="none">
<path d="M2490 10389 c-119 -7 -199 -37 -274 -102 -72 -62 -110 -121 -144
-220 l-27 -82 0 -4375 c0 -4222 1 -4378 18 -4447 11 -40 26 -78 35 -85 12 -11
553 -13 2871 -14 1571 -1 2876 -1 2901 0 79 1 2193 0 2250 -1 30 -1 1347 1
2925 5 l2870 7 18 55 c9 30 22 98 28 150 6 63 9 1531 7 4395 l-3 4300 -26 82
c-45 139 -139 253 -239 289 -25 9 -61 22 -80 30 -30 13 -931 15 -6535 17
-3575 1 -6543 -1 -6595 -4z m13090 -4709 l0 -4210 -6580 0 -6580 0 0 4210 0
4210 6580 0 6580 0 0 -4210z"/>
<path d="M3708 9773 c7 -3 16 -2 19 1 4 3 -2 6 -13 5 -11 0 -14 -3 -6 -6z"/>
<path d="M3660 9740 c-26 -26 -43 -69 -35 -89 4 -10 -6 -26 -27 -44 l-33 -28
31 15 c28 13 33 13 60 -5 37 -24 36 -24 73 7 19 16 31 36 32 52 l1 27 7 -25
c10 -38 46 -34 46 5 0 26 -4 30 -30 33 -40 5 -50 23 -22 44 l22 18 -31 -6
c-19 -4 -34 -1 -38 5 -11 17 -34 13 -56 -9z m47 -66 c8 -21 -13 -42 -28 -27
-13 13 -5 43 11 43 6 0 13 -7 17 -16z"/>
<path d="M3580 9715 c7 -8 17 -15 22 -15 5 0 3 7 -6 15 -8 8 -18 15 -22 15 -3
0 -1 -7 6 -15z"/>
<path d="M3556 9672 c-9 -27 3 -54 23 -50 22 5 22 62 -1 66 -9 2 -19 -5 -22
-16z"/>
<path d="M3596 9555 c-11 -8 -15 -15 -9 -15 6 0 16 7 23 15 16 19 11 19 -14 0z"/>
<path d="M3780 9545 c7 -9 15 -13 17 -11 7 7 -7 26 -19 26 -6 0 -6 -6 2 -15z"/>
<path d="M3728 9513 c5 -21 7 -23 10 -9 2 10 0 22 -6 28 -6 6 -7 0 -4 -19z"/>
<path d="M13360 9465 c0 -8 5 -15 10 -15 6 0 10 7 10 15 0 8 -4 15 -10 15 -5
0 -10 -7 -10 -15z"/>
<path d="M13416 9461 c-4 -7 -5 -15 -2 -18 9 -9 19 4 14 18 -4 11 -6 11 -12 0z"/>
<path d="M14480 9466 c0 -2 7 -7 16 -10 8 -3 12 -2 9 4 -6 10 -25 14 -25 6z"/>
<path d="M13590 9449 c0 -5 5 -7 10 -4 6 3 10 8 10 11 0 2 -4 4 -10 4 -5 0
-10 -5 -10 -11z"/>
<path d="M13528 9373 c7 -3 16 -2 19 1 4 3 -2 6 -13 5 -11 0 -14 -3 -6 -6z"/>
<path d="M13658 9373 c7 -3 16 -2 19 1 4 3 -2 6 -13 5 -11 0 -14 -3 -6 -6z"/>
<path d="M14188 9373 c7 -3 16 -2 19 1 4 3 -2 6 -13 5 -11 0 -14 -3 -6 -6z"/>
<path d="M14258 9373 c6 -2 18 -2 25 0 6 3 1 5 -13 5 -14 0 -19 -2 -12 -5z"/>
<path d="M14348 9373 c7 -3 16 -2 19 1 4 3 -2 6 -13 5 -11 0 -14 -3 -6 -6z"/>
<path d="M3610 9170 c0 -67 4 -110 10 -110 6 0 10 43 10 110 0 67 -4 110 -10
110 -6 0 -10 -43 -10 -110z"/>
<path d="M3460 9165 l0 -105 39 0 c23 0 46 7 55 16 19 18 21 55 5 71 -9 9 -9
19 1 42 10 26 10 35 -4 56 -13 20 -25 25 -56 25 l-40 0 0 -105z m64 79 c10 -4
16 -18 16 -35 0 -26 -4 -29 -30 -29 -26 0 -30 4 -30 28 0 40 11 49 44 36z m20
-110 c9 -24 -12 -54 -39 -54 -22 0 -25 4 -25 35 0 32 3 35 29 35 17 0 31 -6
35 -16z"/>
<path d="M3895 9230 c-3 -5 -19 -10 -35 -10 -38 0 -49 -22 -51 -96 -1 -33 -5
-69 -10 -80 -19 -52 65 -89 104 -46 37 41 14 82 -45 82 -27 0 -38 4 -38 15 0
10 10 15 28 15 39 0 52 17 52 65 0 23 5 46 12 53 9 9 9 12 1 12 -7 0 -15 -4
-18 -10z m-17 -68 c3 -30 1 -33 -20 -30 -23 3 -34 27 -24 54 11 28 41 11 44
-24z m18 -117 c14 -36 -50 -62 -76 -30 -10 12 -10 18 0 30 16 20 69 20 76 0z"/>
<path d="M3688 9203 c-25 -29 -30 -69 -14 -108 13 -29 20 -35 46 -35 26 0 33
6 47 38 13 32 14 42 2 77 -11 31 -20 41 -40 43 -15 2 -31 -4 -41 -15z m51 -17
c7 -8 11 -34 9 -58 -3 -38 -6 -43 -28 -43 -22 0 -25 5 -28 43 -3 40 10 72 28
72 4 0 13 -6 19 -14z"/>
<path d="M7565 8420 c-30 -12 -72 -60 -89 -102 -23 -55 -24 -848 -1 -848 8 0
15 3 15 8 0 4 8 12 18 19 17 10 18 8 14 -15 -4 -21 -2 -24 12 -19 9 4 42 14
74 23 31 9 64 20 72 25 8 4 23 10 33 13 11 3 17 15 17 33 0 21 -3 24 -12 15
-7 -7 -26 -12 -44 -12 -18 0 -34 -6 -37 -12 -2 -7 -8 -10 -12 -6 -6 6 269 288
281 288 2 0 4 -7 4 -17 0 -14 2 -15 18 -1 26 23 46 26 58 9 10 -13 16 -13 40
-1 19 9 24 15 14 17 -17 4 -42 51 -34 64 3 5 11 9 18 9 19 0 43 31 50 66 7 30
6 31 -19 26 -40 -7 -29 28 16 53 69 39 122 77 166 121 38 39 52 46 95 50 71 7
86 -1 99 -48 6 -23 27 -60 46 -84 41 -48 80 -61 133 -42 26 8 35 9 38 0 2 -7
8 -12 14 -12 6 0 5 7 -3 16 -12 15 -6 24 56 80 39 36 78 64 90 64 24 0 155
-97 155 -115 0 -22 147 -146 231 -195 l83 -49 13 30 c13 31 28 35 67 18 19 -9
29 -8 47 5 13 9 34 16 47 16 13 0 37 11 54 25 16 14 38 25 49 25 11 0 22 6 25
14 3 9 19 14 37 14 48 0 111 17 153 41 28 17 46 21 75 16 30 -5 42 -2 59 15
13 13 28 19 38 15 11 -4 35 14 78 60 87 92 148 121 194 93 16 -10 26 -7 64 20
39 28 49 31 67 21 21 -11 22 -10 16 27 -8 46 -32 81 -77 112 l-33 22 -1331 -1
c-732 0 -1340 -4 -1351 -9z m45 -878 c0 -13 -49 -36 -57 -28 -5 4 1 14 11 22
22 15 46 19 46 6z"/>
<path d="M11381 8392 c-30 -27 -40 -43 -35 -55 4 -13 2 -16 -9 -12 -33 13 -36
-64 -36 -893 0 -686 3 -814 14 -818 12 -5 12 -10 -2 -30 -19 -30 -12 -40 17
-24 36 19 36 2 0 -35 -43 -45 -32 -56 20 -20 61 43 62 20 0 -38 -62 -58 -52
-76 13 -23 43 35 67 45 67 27 0 -5 -26 -31 -57 -58 -32 -26 -61 -52 -65 -58
-4 -5 -8 -66 -8 -134 l0 -124 52 7 c28 4 59 11 69 16 9 6 27 40 39 77 13 38
26 72 31 77 17 18 9 -30 -16 -105 -14 -41 -37 -117 -51 -169 -14 -52 -41 -147
-60 -210 -19 -63 -32 -120 -30 -127 8 -21 204 -15 216 6 4 9 38 99 74 200 61
171 87 228 85 190 0 -7 -31 -99 -68 -204 -38 -104 -67 -193 -65 -197 6 -9
1050 -5 1060 4 4 4 1 14 -6 23 -10 13 -10 19 4 33 9 10 16 26 16 35 0 17 18
33 27 23 3 -3 -2 -26 -12 -52 -13 -35 -15 -48 -6 -57 9 -9 160 -13 562 -15
l549 -3 9 23 c5 13 12 47 16 77 l7 54 -26 -7 c-35 -9 -33 10 3 29 24 12 32 25
42 70 7 30 16 55 21 55 11 0 12 6 -18 -142 -14 -71 -23 -136 -20 -144 6 -15
92 -20 112 -6 9 6 28 96 70 332 7 41 12 76 10 77 -2 2 -24 -5 -50 -16 -67 -29
-61 -2 8 31 50 25 54 29 60 72 4 25 12 48 18 52 7 4 8 -3 4 -22 -21 -98 -88
-474 -89 -499 l-2 -30 138 -3 137 -3 0 1318 c0 1262 -1 1320 -19 1358 -10 22
-33 54 -50 70 l-32 30 -975 3 -975 2 -13 -30 c-10 -26 -15 -29 -24 -17 -7 8
-10 21 -7 29 5 11 -6 13 -62 10 -37 -2 -74 -9 -80 -14 -9 -7 -15 -6 -19 6 -5
14 -38 15 -274 15 l-267 0 -42 -37z m1039 -51 c-1 -10 -6 -7 -15 9 -19 33 -18
50 0 26 8 -11 15 -27 15 -35z m159 -67 c-6 -16 -13 -24 -16 -18 -2 6 2 24 8
40 6 16 13 24 16 18 2 -6 -2 -24 -8 -40z m-1172 -71 c110 -242 183 -422 183
-454 0 -51 17 -101 50 -150 54 -80 33 -81 -29 -2 -38 48 -41 57 -41 112 0 50
-9 81 -61 203 -33 78 -73 177 -89 218 -16 41 -38 100 -50 130 -33 83 -14 54
37 -57z m121 -10 c17 -24 32 -51 32 -61 0 -10 -12 2 -28 28 -43 70 -75 128
-55 100 10 -13 33 -44 51 -67z m258 -190 c47 -114 92 -215 100 -224 8 -8 14
-28 14 -44 0 -17 -4 -25 -9 -19 -10 11 -221 528 -221 540 1 18 32 -50 116
-253z m1175 160 c-12 -20 -14 -14 -5 12 4 9 9 14 11 11 3 -2 0 -13 -6 -23z
m199 -41 c0 -15 -2 -15 -10 -2 -13 20 -13 33 0 25 6 -3 10 -14 10 -23z m137
-60 c-14 -47 -14 -47 -31 -33 -13 11 -12 15 5 32 10 10 19 26 19 35 0 8 4 13
9 10 5 -4 5 -22 -2 -44z m-1730 16 c-3 -8 -6 -5 -6 6 -1 11 2 17 5 13 3 -3 4
-12 1 -19z m1370 -35 l38 -18 3 -87 3 -86 -53 14 c-29 7 -62 14 -73 14 -11 0
-28 7 -38 14 -16 13 -18 24 -11 96 l7 82 43 -6 c24 -3 60 -14 81 -23z m-1112
-308 c78 -194 99 -254 66 -195 -29 54 -197 461 -204 495 -9 43 53 -92 138
-300z m-225 255 c0 -5 -5 -10 -11 -10 -5 0 -7 5 -4 10 3 6 8 10 11 10 2 0 4
-4 4 -10z m1987 -12 c-3 -8 -6 -5 -6 6 -1 11 2 17 5 13 3 -3 4 -12 1 -19z
m253 -105 c-11 -17 -11 -17 -6 0 3 10 7 26 7 35 1 15 2 15 6 0 2 -10 -1 -25
-7 -35z m-2210 23 c0 -3 -4 -8 -10 -11 -5 -3 -10 -1 -10 4 0 6 5 11 10 11 6 0
10 -2 10 -4z m2354 -22 c3 -8 2 -12 -4 -9 -6 3 -10 10 -10 16 0 14 7 11 14 -7z
m-534 -43 c0 -14 -5 -18 -20 -14 -19 5 -20 6 -3 19 23 17 23 17 23 -5z m630
-31 c0 -5 -5 -10 -11 -10 -5 0 -7 5 -4 10 3 6 8 10 11 10 2 0 4 -4 4 -10z
m-1260 -39 c0 -6 -4 -13 -10 -16 -5 -3 -10 1 -10 9 0 9 5 16 10 16 6 0 10 -4
10 -9z m-16 -86 c-4 -8 -8 -15 -10 -15 -2 0 -4 7 -4 15 0 8 4 15 10 15 5 0 7
-7 4 -15z m4 -64 c3 -8 -1 -12 -9 -9 -7 2 -15 10 -17 17 -3 8 1 12 9 9 7 -2
15 -10 17 -17z m1052 -39 c19 -26 51 -65 71 -87 22 -24 43 -62 53 -94 19 -63
18 -61 8 -61 -4 0 -14 20 -21 45 -7 25 -40 80 -73 123 -35 44 -57 66 -53 52
12 -40 65 -134 87 -152 11 -10 17 -22 14 -27 -6 -10 83 -205 91 -198 2 2 -8
34 -22 72 -23 59 -27 90 -10 73 9 -9 75 -197 75 -213 0 -22 -16 -18 -28 8 -8
17 -11 18 -11 5 -1 -9 4 -20 9 -23 15 -9 12 -35 -5 -35 -21 0 -42 38 -49 89
-4 24 -29 87 -56 140 -28 52 -50 98 -50 103 0 4 -18 44 -40 89 -36 75 -52 139
-32 139 4 0 23 -22 42 -48z m239 -149 c34 -68 65 -123 70 -123 10 0 25 -50 17
-57 -4 -5 -166 299 -166 313 0 19 22 -18 79 -133z m-1393 91 c-3 -9 -6 -25 -6
-37 0 -16 -3 -18 -11 -10 -14 14 -4 63 12 63 6 0 8 -7 5 -16z m-776 -49 c0 -5
-5 -3 -10 5 -5 8 -10 20 -10 25 0 6 5 3 10 -5 5 -8 10 -19 10 -25z m756 -72
c-39 -142 -38 -139 -48 -113 -10 26 -3 82 13 112 13 24 42 24 35 1z m1443
-130 c33 -65 58 -119 57 -121 -4 -3 -126 223 -126 233 0 18 16 -8 69 -112z
m-1538 24 c-8 -8 -11 -5 -11 9 0 27 14 41 18 19 2 -9 -1 -22 -7 -28z m-76
-107 c3 -5 1 -19 -6 -31 -9 -17 -13 -19 -20 -8 -14 22 -11 49 5 49 8 0 18 -4
21 -10z m-55 -83 c0 -29 0 -30 -20 -12 -12 10 -20 31 -20 48 0 29 0 30 20 12
12 -10 20 -31 20 -48z m88 21 c4 -21 -32 -63 -47 -53 -20 12 -13 37 9 30 11
-4 20 -2 20 4 0 6 -4 11 -10 11 -5 0 -10 7 -10 16 0 21 34 14 38 -8z m1660
-13 c-3 -3 -9 2 -12 12 -6 14 -5 15 5 6 7 -7 10 -15 7 -18z m-1868 -35 c0 -16
-4 -30 -10 -30 -5 0 -10 14 -10 30 0 17 5 30 10 30 6 0 10 -13 10 -30z m1790
-60 c0 -5 -2 -10 -4 -10 -3 0 -8 5 -11 10 -3 6 -1 10 4 10 6 0 11 -4 11 -10z
m-1866 -186 c12 -31 -54 -305 -80 -333 -2 -3 -11 4 -19 15 -20 27 -18 70 6
134 11 30 23 86 26 125 7 96 7 97 37 84 14 -7 27 -18 30 -25z m500 -66 c-4
-13 -7 -27 -6 -31 3 -12 -18 -47 -28 -47 -18 0 -10 57 11 84 24 31 34 28 23
-6z m81 -80 c3 -13 9 -74 15 -136 7 -86 16 -127 35 -169 29 -65 26 -84 -4 -25
-23 45 -51 63 -51 32 0 -23 -13 -26 -28 -7 -14 18 -14 310 1 319 19 12 26 9
32 -14z m837 -160 c-18 -64 -21 -120 -27 -461 -4 -214 -11 -385 -15 -380 -4 4
-4 181 0 393 5 297 11 398 22 440 9 30 19 69 23 85 6 21 9 25 12 13 3 -10 -5
-50 -15 -90z m98 50 c0 -5 -5 -7 -11 -5 -7 1 -18 -26 -27 -61 -8 -34 -19 -59
-24 -54 -8 8 15 99 34 136 8 15 12 16 19 5 5 -8 9 -17 9 -21z m-66 -50 c-8
-35 -16 -69 -19 -76 -3 -7 -5 -122 -5 -256 -1 -134 -5 -256 -10 -272 -6 -19
-8 72 -5 256 3 213 8 298 19 338 27 93 41 100 20 10z m486 -94 c0 -3 -7 -12
-15 -21 -9 -8 -19 -28 -22 -44 -5 -27 -23 -41 -23 -19 0 24 34 90 46 90 8 0
14 -3 14 -6z m-301 -62 c-11 -13 -9 -13 9 2 24 21 29 9 11 -27 -12 -21 -11
-21 8 -4 28 25 38 21 19 -8 -22 -34 -20 -40 6 -15 39 36 32 11 -14 -47 -45
-57 -77 -82 -65 -49 4 9 1 16 -4 16 -6 0 -9 9 -6 20 3 11 1 20 -5 20 -6 0 -8
9 -5 20 3 11 1 20 -4 20 -18 0 -8 25 23 57 32 33 53 29 27 -5z m-1369 -48 c0
-17 -22 -14 -28 4 -2 7 3 12 12 12 9 0 16 -7 16 -16z m451 -97 c11 -21 18 -42
15 -45 -10 -9 -23 9 -46 62 -16 39 -17 46 -5 36 9 -8 25 -31 36 -53z m-1208
13 c-3 -12 -8 -19 -11 -16 -5 6 5 36 12 36 2 0 2 -9 -1 -20z m797 -15 c0 -27
-9 -32 -28 -13 -18 18 -14 38 8 38 15 0 20 -7 20 -25z m1557 -32 c-3 -16 -22
-118 -43 -228 -20 -110 -39 -202 -41 -204 -1 -2 -6 -1 -10 3 -9 9 80 456 91
456 5 0 6 -12 3 -27z m-1650 -386 c14 -23 33 -47 40 -52 23 -17 5 -45 -29 -45
-64 0 -76 23 -62 112 8 44 15 41 51 -15z m873 3 c0 -5 -5 -10 -11 -10 -5 0 -7
5 -4 10 3 6 8 10 11 10 2 0 4 -4 4 -10z"/>
<path d="M4588 8403 c6 -2 18 -2 25 0 6 3 1 5 -13 5 -14 0 -19 -2 -12 -5z"/>
<path d="M3710 8319 c0 -5 5 -7 10 -4 6 3 10 8 10 11 0 2 -4 4 -10 4 -5 0 -10
-5 -10 -11z"/>
<path d="M3620 8280 c0 -5 5 -10 11 -10 5 0 7 5 4 10 -3 6 -8 10 -11 10 -2 0
-4 -4 -4 -10z"/>
<path d="M3810 8212 c0 -6 -14 -19 -31 -28 -35 -17 -72 -12 -104 14 -13 12
-12 8 5 -15 34 -43 75 -44 115 -3 16 16 25 33 22 37 -4 3 -7 1 -7 -5z"/>
<path d="M4167 8189 c8 -8 16 -8 30 0 16 9 14 10 -11 11 -22 0 -27 -3 -19 -11z"/>
<path d="M3621 8119 c-7 -12 -10 -23 -8 -26 3 -3 11 5 17 17 15 28 8 35 -9 9z"/>
<path d="M3675 8090 c-3 -5 -1 -10 4 -10 6 0 11 5 11 10 0 6 -2 10 -4 10 -3 0
-8 -4 -11 -10z"/>
<path d="M3626 8058 c-9 -34 -8 -38 9 -38 10 0 15 10 15 30 0 35 -15 40 -24 8z"/>
<path d="M3630 7977 c0 -9 -4 -17 -10 -17 -5 0 -10 -7 -10 -15 0 -8 4 -15 9
-15 10 0 25 50 16 58 -3 3 -5 -2 -5 -11z"/>
<path d="M3670 7970 c0 -11 5 -20 10 -20 6 0 10 9 10 20 0 11 -4 20 -10 20 -5
0 -10 -9 -10 -20z"/>
<path d="M8614 7952 c-18 -15 -37 -38 -44 -52 -9 -18 3 -10 39 25 28 27 51 51
51 52 0 9 -19 -1 -46 -25z"/>
<path d="M3700 7949 c0 -5 5 -7 10 -4 6 3 10 8 10 11 0 2 -4 4 -10 4 -5 0 -10
-5 -10 -11z"/>
<path d="M3705 7917 c-4 -10 -5 -21 -1 -24 10 -10 18 4 13 24 -4 17 -4 17 -12
0z"/>
<path d="M3826 7916 c6 -17 78 -23 87 -8 3 4 -7 7 -21 7 -15 1 -37 4 -49 8
-18 7 -22 5 -17 -7z"/>
<path d="M3654 7912 c-6 -4 -14 -20 -18 -36 -6 -25 -5 -28 7 -18 8 7 21 10 29
7 14 -6 16 6 9 48 -1 9 -13 9 -27 -1z"/>
<path d="M5338 7893 c12 -2 32 -2 45 0 12 2 2 4 -23 4 -25 0 -35 -2 -22 -4z"/>
<path d="M5558 7855 c30 -14 67 -34 83 -46 16 -11 29 -16 29 -10 0 14 -53 49
-101 66 -64 23 -70 18 -11 -10z"/>
<path d="M8035 7870 c-3 -5 1 -10 9 -10 9 0 16 5 16 10 0 6 -4 10 -9 10 -6 0
-13 -4 -16 -10z"/>
<path d="M3778 7683 c7 -3 16 -2 19 1 4 3 -2 6 -13 5 -11 0 -14 -3 -6 -6z"/>
<path d="M5170 7654 c-30 -12 -70 -28 -89 -35 -49 -18 -89 -66 -97 -116 -6
-39 -8 -42 -33 -37 -24 5 -30 1 -40 -24 -7 -17 -11 -41 -9 -53 3 -22 0 -24
-34 -21 -22 2 -38 -2 -38 -8 0 -5 -6 -10 -14 -10 -19 0 -30 -32 -14 -41 10 -6
9 -11 -5 -22 -13 -9 -18 -23 -15 -42 2 -19 -4 -37 -15 -48 -10 -10 -14 -23
-10 -30 4 -6 6 -24 5 -39 -1 -14 1 -29 6 -32 4 -2 73 63 152 146 133 138 177
174 238 192 38 12 25 -13 -41 -77 -76 -74 -126 -161 -163 -282 -24 -79 -27
-107 -27 -230 -1 -103 4 -159 17 -210 10 -38 22 -110 26 -159 4 -50 12 -92 17
-93 6 -2 8 -14 5 -26 -5 -19 -3 -20 11 -9 9 8 17 25 19 39 4 31 25 42 34 18 5
-11 -8 -30 -40 -62 -38 -37 -45 -48 -35 -59 7 -8 18 -13 26 -10 8 4 13 -2 13
-17 0 -35 36 -84 77 -107 21 -11 45 -24 53 -29 42 -23 61 -30 111 -40 103 -21
119 -20 185 11 39 18 71 27 83 23 16 -5 22 -1 27 20 4 16 13 25 23 24 30 -3
30 1 5 56 -13 31 -24 62 -24 70 0 20 26 19 34 -1 9 -22 20 -11 50 48 15 29 44
82 66 118 128 213 139 524 24 752 -19 37 -30 68 -25 68 6 0 13 -5 16 -10 11
-17 87 -52 95 -43 13 14 30 75 30 107 0 96 -151 276 -231 276 -33 0 -99 -53
-99 -80 0 -10 16 -42 35 -71 20 -28 37 -55 40 -58 2 -4 -27 8 -63 27 -82 40
-179 51 -257 29 -27 -8 -57 -16 -65 -18 -9 -3 -16 5 -18 20 -2 15 0 21 7 17
14 -9 122 48 151 79 20 21 20 25 7 52 -38 72 -101 92 -187 57z m46 -85 c3 -6
-1 -18 -10 -27 -12 -13 -21 -14 -33 -6 -24 15 -27 32 -6 37 31 8 42 7 49 -4z
m484 -114 c7 -9 8 -15 2 -15 -5 0 -12 7 -16 15 -3 8 -4 15 -2 15 2 0 9 -7 16
-15z m-212 -100 c80 -37 153 -112 201 -208 56 -111 74 -203 68 -342 -11 -224
-103 -392 -258 -471 -30 -15 -60 -35 -67 -45 -16 -23 -72 -25 -131 -4 -56 20
-175 126 -223 199 -83 129 -119 342 -84 506 61 288 292 459 494 365z m168 -10
c-3 -9 -11 -13 -16 -10 -8 5 -7 11 1 21 14 18 24 11 15 -11z m-816 -19 c0 -3
-4 -8 -10 -11 -5 -3 -10 -1 -10 4 0 6 5 11 10 11 6 0 10 -2 10 -4z m-9 -83
c-8 -15 -10 -15 -11 -2 0 17 10 32 18 25 2 -3 -1 -13 -7 -23z"/>
<path d="M5260 7330 c0 -5 5 -10 10 -10 6 0 10 5 10 10 0 6 -4 10 -10 10 -5 0
-10 -4 -10 -10z"/>
<path d="M5220 7311 c0 -17 18 -21 24 -6 3 9 0 15 -9 15 -8 0 -15 -4 -15 -9z"/>
<path d="M5195 7290 c-3 -5 -1 -10 4 -10 6 0 11 5 11 10 0 6 -2 10 -4 10 -3 0
-8 -4 -11 -10z"/>
<path d="M5131 7094 c0 -11 3 -14 6 -6 3 7 2 16 -1 19 -3 4 -6 -2 -5 -13z"/>
<path d="M5200 7057 c0 -14 53 -93 91 -134 22 -24 39 -52 39 -63 0 -30 18 -60
36 -60 8 0 22 16 30 35 10 24 25 40 52 50 51 22 194 106 188 112 -2 3 -57 -20
-121 -51 -140 -66 -158 -66 -209 3 -36 49 -106 120 -106 108z"/>
<path d="M8035 7657 c-61 -38 -90 -118 -58 -165 10 -15 18 -38 18 -52 0 -20 5
-25 27 -25 34 -1 70 -33 66 -59 -3 -19 -10 -20 -203 -18 -110 0 -250 4 -311 8
l-111 6 -5 -278 c-3 -154 -5 -535 -4 -849 l1 -570 1390 0 c765 0 1420 2 1458
3 l67 4 0 776 c0 704 -2 777 -16 794 -16 16 -16 18 0 24 11 4 16 18 16 44 0
37 -1 38 -42 42 -39 5 -126 -4 -185 -17 -38 -9 -27 -28 12 -22 28 5 38 2 50
-16 30 -43 21 -54 -42 -51 -32 1 -66 3 -75 3 -11 1 -15 6 -12 16 4 9 0 15 -9
15 -8 0 -17 -5 -19 -10 -2 -6 -17 -11 -33 -11 -91 -1 -134 -2 -273 -2 -128 0
-151 -2 -140 -13 7 -7 24 -15 38 -17 16 -3 24 -10 22 -20 -1 -8 2 -18 7 -21
10 -7 -8 -66 -23 -77 -5 -4 -5 -12 -1 -19 11 -17 -14 -30 -46 -23 -14 3 -39
-2 -55 -10 -16 -8 -35 -12 -41 -10 -7 3 -16 -2 -19 -10 -3 -8 -13 -13 -23 -10
-12 3 -28 -7 -45 -28 -26 -30 -28 -31 -41 -13 -15 18 -16 18 -35 -4 -20 -24
-57 -26 -52 -3 1 7 -2 10 -6 7 -5 -3 -7 -17 -4 -31 4 -21 1 -25 -20 -25 -13 0
-29 5 -35 11 -7 7 -12 3 -17 -14 -6 -25 -57 -48 -64 -29 -2 6 -15 6 -36 0 -22
-7 -37 -20 -46 -42 -9 -24 -14 -27 -17 -13 -6 21 -57 23 -93 2 -34 -20 -39
-19 -50 11 -10 26 -30 25 -30 -3 0 -15 -12 -15 -54 3 -17 7 -18 4 -13 -24 4
-17 2 -34 -3 -37 -5 -3 -7 -22 -4 -41 5 -34 -9 -46 -32 -25 -5 5 -29 12 -54
14 -25 3 -57 8 -71 12 -19 5 -28 2 -32 -9 -6 -16 -52 -13 -89 5 -10 6 -18 5
-20 -3 -3 -8 -10 -8 -24 0 -15 8 -25 5 -49 -14 -37 -30 -49 -30 -42 -1 6 22 6
22 -9 2 -13 -17 -16 -18 -24 -5 -9 13 -11 13 -19 1 -8 -12 -15 -13 -35 -3 -19
8 -26 8 -29 -1 -2 -7 -9 -2 -16 11 -16 29 -7 42 30 42 16 0 38 9 50 21 16 16
23 18 35 8 16 -13 29 -6 29 19 0 9 8 18 17 20 11 2 16 -3 14 -15 -2 -10 -1
-12 1 -5 3 6 11 12 18 12 8 0 17 9 20 20 7 23 16 25 34 8 10 -11 14 -10 21 3
6 11 18 15 34 12 13 -3 27 0 30 6 4 6 16 11 27 11 22 0 26 32 5 49 -17 14 -45
5 -69 -23 -19 -21 -19 -21 -13 13 3 18 6 40 6 49 0 8 3 13 6 9 3 -3 17 -1 31
4 17 6 30 6 38 -1 13 -11 25 -4 25 16 0 7 5 25 10 40 10 26 11 26 31 8 19 -17
20 -17 26 4 3 12 9 23 14 23 13 2 29 6 32 9 1 1 11 3 22 6 11 2 36 7 55 10 19
4 41 13 49 21 9 9 25 13 42 9 16 -3 31 -1 34 3 2 5 17 12 32 16 16 3 39 16 52
28 13 12 21 17 17 10 -11 -19 14 -26 28 -7 9 11 19 15 31 10 10 -3 24 -1 31 5
8 7 22 13 32 14 41 4 98 18 110 28 10 8 16 7 21 -1 4 -6 22 -13 41 -14 25 -2
35 1 38 14 4 22 -59 35 -223 43 -71 3 -157 9 -190 12 -33 3 -83 6 -112 7 -28
0 -54 4 -58 8 -4 4 -17 3 -29 -1 -11 -5 -57 -5 -101 -1 -117 12 -252 20 -409
25 -76 2 -145 6 -153 9 -27 11 -10 50 32 71 22 12 41 29 43 39 2 9 12 26 22
36 20 20 18 48 -4 62 -6 4 -11 18 -11 31 -1 21 -46 76 -64 78 -59 7 -79 6 -96
-4z m600 -586 c-3 -6 -11 -8 -17 -5 -6 4 -5 9 3 15 16 10 23 4 14 -10z m-225
-11 c0 -5 -2 -10 -4 -10 -3 0 -8 5 -11 10 -3 6 -1 10 4 10 6 0 11 -4 11 -10z
m-34 -30 c5 -5 20 -11 34 -13 36 -6 37 -27 1 -27 -16 0 -32 -4 -36 -9 -3 -6
-18 -8 -33 -7 -15 2 -33 4 -39 5 -7 0 -13 10 -13 21 0 22 16 27 23 8 2 -8 9
-5 18 10 15 24 29 28 45 12z m240 -17 c-10 -10 -19 5 -10 18 6 11 8 11 12 0 2
-7 1 -15 -2 -18z m-362 -38 c3 -10 -1 -15 -13 -15 -10 0 -24 7 -31 15 -11 13
-9 15 13 15 14 0 27 -7 31 -15z m-238 -22 c-10 -10 -19 5 -10 18 6 11 8 11 12
0 2 -7 1 -15 -2 -18z m2134 -12 c0 -5 -7 -14 -15 -21 -12 -10 -15 -10 -15 2 0
8 3 18 7 21 9 10 23 9 23 -2z m-1654 -28 c-10 -10 -19 5 -10 18 6 11 8 11 12
0 2 -7 1 -15 -2 -18z m1533 -22 c12 -8 12 -12 2 -25 -12 -15 -15 -15 -27 1 -7
10 -14 21 -14 26 0 10 22 9 39 -2z m56 -1 c3 -6 -1 -7 -9 -4 -18 7 -21 14 -7
14 6 0 13 -4 16 -10z m-908 -45 c-12 -25 -27 -33 -27 -15 0 12 22 39 32 40 3
0 1 -11 -5 -25z m133 -1 c0 -8 -7 -14 -15 -14 -15 0 -21 21 -9 33 10 9 24 -2
24 -19z m680 -4 c0 -5 -4 -10 -10 -10 -5 0 -10 5 -10 10 0 6 5 10 10 10 6 0
10 -4 10 -10z m-420 -4 c0 -3 -4 -8 -10 -11 -5 -3 -10 -1 -10 4 0 6 5 11 10
11 6 0 10 -2 10 -4z m280 -27 c0 -5 -4 -9 -10 -9 -5 0 -10 7 -10 16 0 8 5 12
10 9 6 -3 10 -10 10 -16z m-981 -30 c-20 -13 -29 -11 -29 5 0 16 33 27 39 13
2 -5 -3 -13 -10 -18z m1256 21 c3 -5 1 -10 -4 -10 -6 0 -11 5 -11 10 0 6 2 10
4 10 3 0 8 -4 11 -10z m-770 -10 c3 -6 -1 -7 -9 -4 -18 7 -21 14 -7 14 6 0 13
-4 16 -10z m-365 -4 c0 -3 -4 -8 -10 -11 -5 -3 -10 -1 -10 4 0 6 5 11 10 11 6
0 10 -2 10 -4z m770 -16 c0 -5 -2 -10 -4 -10 -3 0 -8 5 -11 10 -3 6 -1 10 4
10 6 0 11 -4 11 -10z m190 -27 c0 -13 -3 -13 -15 -3 -8 7 -15 19 -15 27 0 13
3 13 15 3 8 -7 15 -19 15 -27z m-950 3 c0 -8 -4 -18 -10 -21 -5 -3 -10 3 -10
14 0 12 5 21 10 21 6 0 10 -6 10 -14z m230 10 c0 -3 -4 -8 -10 -11 -5 -3 -10
-1 -10 4 0 6 5 11 10 11 6 0 10 -2 10 -4z m590 -40 c0 -19 -4 -38 -10 -41 -6
-4 -10 10 -10 34 0 23 5 41 10 41 6 0 10 -15 10 -34z m-137 -16 c-3 -11 -9
-17 -14 -14 -14 8 -10 34 5 34 9 0 12 -7 9 -20z m72 10 c3 -5 1 -10 -4 -10 -6
0 -11 5 -11 10 0 6 2 10 4 10 3 0 8 -4 11 -10z m-178 -32 c-3 -7 -5 -2 -5 12
0 14 2 19 5 13 2 -7 2 -19 0 -25z m48 22 c-3 -5 -11 -10 -16 -10 -6 0 -7 5 -4
10 3 6 11 10 16 10 6 0 7 -4 4 -10z m-78 -52 c-3 -7 -5 -2 -5 12 0 14 2 19 5
13 2 -7 2 -19 0 -25z m211 17 c18 2 32 -1 32 -6 0 -5 -7 -9 -16 -9 -11 0 -14
-6 -9 -20 6 -18 3 -20 -21 -14 -19 5 -25 4 -20 -5 4 -6 1 -18 -8 -26 -17 -18
-25 -9 -21 25 2 14 4 36 4 49 1 18 4 21 14 12 7 -6 28 -9 45 -6z m-91 -70 c-6
-30 -14 -55 -19 -55 -5 0 -7 8 -4 18 3 9 2 23 -3 30 -6 9 -16 3 -39 -24 -17
-20 -36 -33 -41 -29 -6 3 -11 -1 -11 -9 0 -8 4 -17 10 -21 5 -3 7 -12 4 -20
-9 -23 -56 3 -48 27 3 10 2 18 -3 19 -4 0 -23 2 -42 5 -19 2 -40 -1 -47 -7
-10 -8 -14 -8 -14 0 0 6 -7 11 -15 11 -17 0 -20 16 -5 25 6 3 10 16 10 28 0
16 6 22 23 22 12 1 32 4 45 9 18 6 22 4 22 -13 0 -12 7 -21 15 -21 8 0 15 5
15 10 0 6 9 10 20 10 11 0 20 7 20 15 0 8 5 15 10 15 6 0 10 -9 10 -20 0 -11
-4 -20 -10 -20 -5 0 -10 -7 -10 -16 0 -13 3 -14 13 -5 8 6 17 8 21 3 4 -4 6 6
4 22 -2 17 2 31 10 33 7 3 10 -1 6 -11 -4 -10 -1 -16 9 -16 8 0 17 9 20 20 3
11 12 20 19 20 12 0 13 -9 5 -55z m-407 25 c0 -5 -2 -10 -4 -10 -3 0 -8 5 -11
10 -3 6 -1 10 4 10 6 0 11 -4 11 -10z m-430 -10 c0 -5 -4 -10 -10 -10 -5 0
-10 5 -10 10 0 6 5 10 10 10 6 0 10 -4 10 -10z m411 -53 c-8 -8 -16 -6 -29 7
-16 18 -16 18 6 13 16 -4 22 0 23 11 1 14 2 13 6 -2 3 -10 0 -23 -6 -29z m115
6 c-3 -8 -6 -17 -6 -21 0 -8 -29 31 -30 40 0 3 9 4 21 1 12 -4 18 -11 15 -20z
m-56 8 c0 -5 -9 -11 -21 -14 -16 -4 -18 -3 -8 9 13 16 29 19 29 5z m-454 -27
c-4 -9 -1 -23 5 -30 8 -10 8 -14 0 -14 -17 0 -13 -24 8 -42 21 -17 18 -59 -4
-78 -10 -8 -17 -4 -28 19 -14 29 -14 31 6 37 22 7 22 7 2 15 -29 11 -33 11
-38 -3 -2 -7 -2 -1 0 13 3 19 -2 28 -19 37 -17 8 -18 11 -7 11 9 1 19 8 23 16
3 8 15 15 26 15 11 0 20 5 20 10 0 6 3 10 6 10 3 0 3 -7 0 -16z m170 -38 c0
-13 -5 -24 -11 -23 -5 1 -9 -2 -8 -8 0 -5 3 -19 5 -30 2 -13 -3 -20 -12 -20
-10 0 -14 9 -13 28 2 33 -14 36 -26 5 -7 -18 -9 -14 -7 19 0 24 4 43 9 43 4 0
7 -7 7 -15 0 -21 17 -19 37 5 22 25 21 25 19 -4z m-97 -73 c-7 -13 -14 -21
-17 -19 -12 12 -18 75 -9 92 10 17 12 15 25 -15 11 -28 11 -39 1 -58z m386 77
c-4 -6 -1 -17 5 -25 10 -12 9 -15 -9 -15 -18 0 -21 4 -15 22 6 21 6 21 -11 5
-21 -21 -33 -14 -15 8 14 17 55 21 45 5z m195 -5 c0 -8 -4 -15 -10 -15 -5 0
-10 7 -10 15 0 8 5 15 10 15 6 0 10 -7 10 -15z m-240 -39 c0 -3 -4 -8 -10 -11
-5 -3 -10 -1 -10 4 0 6 5 11 10 11 6 0 10 -2 10 -4z m-220 -46 c0 -5 -4 -10
-10 -10 -5 0 -10 5 -10 10 0 6 5 10 10 10 6 0 10 -4 10 -10z m-290 -26 c0 -8
-5 -12 -10 -9 -6 4 -8 11 -5 16 9 14 15 11 15 -7z m40 2 c0 -3 -4 -8 -10 -11
-5 -3 -10 -1 -10 4 0 6 5 11 10 11 6 0 10 -2 10 -4z m-70 -36 c0 -5 -7 -10
-16 -10 -8 0 -12 5 -9 10 3 6 10 10 16 10 5 0 9 -4 9 -10z m1050 -115 c0 -8
-4 -15 -9 -15 -13 0 -22 16 -14 24 11 11 23 6 23 -9z m-950 2 c0 -2 -9 -12
-20 -22 -19 -18 -20 -17 -20 3 0 15 6 22 20 22 11 0 20 -2 20 -3z m370 -267
c0 -5 -5 -10 -11 -10 -5 0 -7 5 -4 10 3 6 8 10 11 10 2 0 4 -4 4 -10z m-1098
-112 c-7 -7 -12 -8 -12 -2 0 14 12 26 19 19 2 -3 -1 -11 -7 -17z m1508 -4 c0
-8 -5 -12 -10 -9 -6 4 -8 11 -5 16 9 14 15 11 15 -7z"/>
<path d="M9442 7645 c-33 -35 -24 -49 16 -25 19 11 32 26 30 32 -7 21 -22 18
-46 -7z"/>
<path d="M9533 7663 c-18 -6 -16 -23 1 -23 17 0 30 16 19 23 -5 2 -14 2 -20 0z"/>
<path d="M3610 6923 c0 -451 3 -694 10 -698 6 -3 10 -17 10 -30 0 -13 -4 -27
-10 -30 -5 -3 -10 -20 -10 -36 0 -25 3 -29 23 -24 24 6 327 35 361 35 14 0 26
10 35 30 7 18 26 36 45 44 28 12 33 11 54 -7 12 -11 22 -27 22 -35 0 -10 9
-12 38 -8 20 3 66 8 102 11 36 4 112 12 170 20 58 7 144 17 193 20 48 4 90 11
92 15 3 5 -3 23 -14 42 -35 61 -35 75 -2 83 34 7 64 35 37 35 -17 0 -470 -100
-569 -126 -32 -8 -62 -12 -67 -9 -6 3 -10 30 -10 58 0 29 -12 151 -26 272 -14
121 -26 236 -27 255 -1 19 -6 41 -10 48 -5 7 -6 26 -2 43 4 18 2 36 -5 44 -8
9 -9 29 -5 54 4 24 2 41 -4 46 -6 3 -11 23 -11 43 0 20 -3 62 -6 92 -4 30 -7
73 -8 95 0 22 -7 44 -13 48 -7 4 -13 17 -13 29 0 13 -5 18 -14 15 -8 -3 -22 1
-33 8 -10 8 -21 15 -25 15 -11 0 -10 -38 2 -60 7 -13 7 -21 0 -25 -5 -3 -10
-1 -10 4 0 6 -3 11 -7 11 -12 0 -33 -51 -33 -77 0 -13 -4 -23 -9 -23 -11 0 -6
73 5 92 6 10 4 10 -9 0 -9 -8 -25 -11 -35 -8 -16 6 -21 0 -26 -30 -9 -46 -1
-56 9 -12 l7 33 8 -28 c5 -16 6 -36 3 -44 -4 -10 3 -23 18 -34 21 -16 22 -18
6 -24 -9 -4 -17 -14 -17 -22 0 -9 -7 -21 -15 -27 -16 -12 -23 -116 -10 -154 5
-16 4 -22 -5 -20 -7 2 -15 -3 -18 -11 -3 -10 0 -12 12 -8 9 4 16 1 16 -6 0 -7
9 -20 20 -30 26 -22 25 -49 0 -72 -16 -14 -23 -16 -32 -7 -16 16 -38 15 -38
-1 0 -17 53 -39 75 -31 12 5 16 4 11 -4 -3 -6 2 -13 13 -17 12 -4 21 -19 25
-45 3 -22 10 -40 14 -40 7 0 12 -34 15 -105 2 -40 2 -40 -66 -75 -58 -30 -69
-33 -77 -20 -20 32 -11 67 25 94 45 35 44 45 -2 39 -56 -7 -88 22 -103 94 -16
74 -7 147 23 192 13 20 26 44 30 54 3 9 13 17 21 17 8 0 15 13 18 33 l4 34
-42 -19 c-54 -24 -74 -16 -76 31 -3 60 3 105 14 112 6 4 8 11 4 17 -3 6 -1 14
5 18 6 3 9 18 6 33 -3 15 -2 33 3 41 5 8 4 22 -3 34 -6 12 -12 36 -13 54 -1
17 -7 55 -13 84 -7 31 -8 54 -2 57 16 11 0 61 -20 61 -10 0 -23 8 -28 18 -7
12 -10 -200 -11 -675z m86 -436 c16 -7 48 -25 72 -40 35 -23 46 -26 58 -16 11
9 18 8 34 -6 11 -10 20 -24 20 -31 0 -7 13 -26 29 -42 49 -48 22 -98 -40 -75
-28 11 -28 10 -43 -41 -20 -64 -30 -80 -48 -74 -23 9 -158 242 -158 272 0 34
16 66 34 66 8 0 27 -6 42 -13z"/>
<path d="M3760 6332 c6 -13 14 -21 18 -18 3 4 -2 14 -12 24 -18 16 -18 16 -6
-6z"/>
<path d="M3666 7599 c14 -23 129 -69 169 -68 39 1 39 2 -10 9 -27 4 -74 21
-103 39 -57 33 -67 37 -56 20z"/>
<path d="M10290 7602 c0 -5 6 -17 14 -27 12 -17 18 -18 40 -7 41 18 33 42 -14
42 -22 0 -40 -4 -40 -8z"/>
<path d="M5390 7582 c0 -15 22 -29 58 -37 39 -8 43 9 5 23 -16 5 -36 13 -45
17 -10 4 -18 3 -18 -3z"/>
<path d="M7884 7546 c-18 -14 -18 -15 -1 -22 13 -4 26 0 40 15 21 21 21 21 1
21 -11 0 -29 -6 -40 -14z"/>
<path d="M3691 7511 c-8 -5 -11 -16 -8 -25 10 -25 27 -19 27 9 0 28 0 28 -19
16z"/>
<path d="M4662 7440 c0 -19 3 -57 8 -85 l7 -50 1 45 c1 25 -3 63 -7 85 l-9 40
0 -35z"/>
<path d="M3695 7360 c3 -5 13 -10 21 -10 8 0 14 5 14 10 0 6 -9 10 -21 10 -11
0 -17 -4 -14 -10z"/>
<path d="M9070 7337 c0 -19 10 -27 26 -20 21 8 17 33 -6 33 -11 0 -20 -6 -20
-13z"/>
<path d="M4681 7274 c0 -16 8 -83 18 -149 14 -99 18 -114 25 -88 4 18 4 38 -1
45 -4 7 -9 24 -10 38 -4 50 -24 174 -28 179 -3 2 -5 -9 -4 -25z"/>
<path d="M4744 7259 c-3 -6 -1 -16 5 -22 8 -8 11 -5 11 11 0 24 -5 28 -16 11z"/>
<path d="M9475 7262 c-2 -3 -2 -9 1 -13 7 -12 64 -12 64 0 0 9 -57 21 -65 13z"/>
<path d="M9550 7250 c0 -5 5 -10 10 -10 6 0 10 5 10 10 0 6 -4 10 -10 10 -5 0
-10 -4 -10 -10z"/>
<path d="M9410 7240 c0 -5 5 -10 10 -10 6 0 10 5 10 10 0 6 -4 10 -10 10 -5 0
-10 -4 -10 -10z"/>
<path d="M9613 7170 c2 -26 7 -36 22 -39 19 -3 19 -2 4 15 -10 11 -19 28 -22
39 -3 11 -5 4 -4 -15z"/>
<path d="M3782 7090 c0 -14 2 -19 5 -12 2 6 2 18 0 25 -3 6 -5 1 -5 -13z"/>
<path d="M9592 7099 c2 -6 8 -10 13 -10 5 0 11 4 13 10 2 6 -4 11 -13 11 -9 0
-15 -5 -13 -11z"/>
<path d="M8615 6790 c-4 -6 -3 -16 3 -22 6 -6 12 -6 17 2 4 6 3 16 -3 22 -6 6
-12 6 -17 -2z"/>
<path d="M11354 6071 c-17 -4 -36 -11 -42 -15 -13 -8 -18 -346 -4 -346 6 0
113 344 112 363 0 8 -23 8 -66 -2z"/>
<path d="M7682 4623 c2 -10 10 -18 18 -18 22 0 18 29 -3 33 -14 3 -18 -1 -15
-15z"/>
<path d="M7826 4632 c-8 -13 11 -35 23 -28 16 10 14 36 -3 36 -8 0 -17 -4 -20
-8z"/>
<path d="M12460 4625 c-13 -16 -16 -42 -12 -137 1 -44 6 -58 17 -58 11 0 15
13 15 53 0 29 5 58 12 65 9 9 9 15 1 23 -7 7 -9 25 -6 40 6 32 -7 38 -27 14z"/>
<path d="M12516 4632 c-8 -13 11 -35 23 -28 16 10 14 36 -3 36 -8 0 -17 -4
-20 -8z"/>
<path d="M3620 4531 c0 -84 3 -101 15 -101 13 0 15 15 13 97 -2 66 -7 98 -15
101 -10 3 -13 -21 -13 -97z"/>
<path d="M3817 4623 c-4 -3 -7 -48 -7 -100 0 -76 3 -93 15 -93 12 0 15 18 15
100 0 92 -5 112 -23 93z"/>
<path d="M4010 4531 c0 -84 3 -101 15 -101 13 0 15 15 13 97 -2 66 -7 98 -15
101 -10 3 -13 -21 -13 -97z"/>
<path d="M4420 4601 c0 -28 -2 -31 -25 -25 -14 4 -32 1 -40 -6 -22 -18 -29
-74 -13 -107 12 -25 19 -28 58 -28 l45 0 0 94 c0 67 -4 96 -12 99 -9 2 -13 -7
-13 -27z m-5 -80 c8 -26 -4 -51 -25 -51 -10 0 -21 7 -24 16 -10 25 3 54 24 54
10 0 21 -8 25 -19z"/>
<path d="M8000 4531 c0 -83 3 -101 15 -101 11 0 15 12 15 50 0 36 4 52 15 57
23 8 27 0 33 -57 7 -71 22 -62 22 14 0 69 -14 92 -49 81 -16 -5 -20 -1 -23 21
-2 15 -9 29 -15 32 -10 3 -13 -21 -13 -97z"/>
<path d="M8697 4623 c-4 -3 -7 -48 -7 -100 0 -76 3 -93 15 -93 11 0 15 12 15
49 0 28 6 53 13 60 22 17 37 -8 37 -61 0 -36 4 -48 15 -48 11 0 15 13 15 53 0
66 -21 101 -56 93 -21 -6 -24 -3 -24 24 0 29 -9 38 -23 23z"/>
<path d="M7470 4525 l0 -95 39 0 c21 0 43 6 49 13 5 6 10 45 10 85 0 80 -9 92
-67 92 l-31 0 0 -95z m68 36 c-5 -24 -38 -27 -38 -3 0 10 3 21 6 25 11 11 35
-5 32 -22z m-3 -77 c0 -10 -8 -20 -17 -22 -18 -3 -26 27 -11 42 12 11 28 0 28
-20z"/>
<path d="M11339 4601 c-20 -16 -24 -29 -24 -74 0 -40 5 -61 19 -76 27 -30 71
-28 92 4 21 32 12 43 -20 25 -14 -7 -32 -10 -40 -7 -40 15 -26 115 14 103 11
-3 29 -9 40 -12 12 -4 20 -2 20 5 0 18 -38 51 -59 51 -10 0 -29 -9 -42 -19z"/>
<path d="M7747 4589 c-7 -28 4 -131 16 -146 15 -20 37 -15 37 7 0 11 -4 20
-10 20 -14 0 -12 56 3 81 10 17 10 23 0 26 -7 3 -13 11 -13 19 0 22 -27 17
-33 -7z"/>
<path d="M8611 4588 c-8 -23 1 -127 14 -147 9 -16 45 -13 45 3 0 7 -7 19 -15
26 -17 14 -21 70 -5 70 14 0 12 32 -4 53 -17 23 -25 22 -35 -5z"/>
<path d="M11817 4589 c-7 -26 3 -118 15 -141 12 -24 38 -23 38 2 0 11 -4 20
-10 20 -14 0 -12 56 3 81 10 17 10 23 0 26 -7 3 -13 11 -13 19 0 22 -27 16
-33 -7z"/>
<path d="M12777 4588 c-10 -41 7 -140 25 -152 23 -14 35 0 20 24 -15 24 -16
72 -2 86 12 12 -9 64 -26 64 -7 0 -14 -10 -17 -22z"/>
<path d="M13277 4588 c-10 -41 7 -140 25 -152 23 -14 35 0 20 24 -16 25 -15
65 1 91 10 17 10 23 0 26 -7 3 -13 11 -13 19 0 23 -27 16 -33 -8z"/>
<path d="M3685 4557 c-17 -25 -20 -80 -5 -107 8 -15 21 -19 55 -18 l45 1 0 71
0 71 -40 1 c-31 1 -44 -4 -55 -19z m60 -52 c0 -23 -4 -30 -20 -30 -21 0 -31
25 -21 51 11 28 41 12 41 -21z"/>
<path d="M3885 4564 c-18 -19 -20 -107 -2 -122 6 -5 31 -10 55 -9 l43 0 -3 70
-3 71 -37 2 c-23 2 -44 -3 -53 -12z m61 -48 c7 -31 -1 -46 -27 -46 -14 0 -19
7 -19 28 0 48 35 61 46 18z"/>
<path d="M4075 4557 c-17 -25 -20 -80 -5 -107 8 -15 21 -19 55 -18 l45 1 0 71
0 71 -40 1 c-31 1 -44 -4 -55 -19z m60 -52 c0 -23 -4 -30 -20 -30 -21 0 -31
25 -21 51 11 28 41 12 41 -21z"/>
<path d="M4204 4555 c-9 -36 0 -118 14 -123 8 -2 12 10 12 40 0 51 12 73 34
65 12 -5 16 -20 16 -57 0 -38 4 -50 15 -50 12 0 15 13 15 56 0 77 -11 93 -60
91 -32 -1 -42 -6 -46 -22z"/>
<path d="M7605 4572 c-3 -3 -5 -36 -5 -74 0 -54 3 -68 15 -68 11 0 15 12 15
45 0 34 5 47 20 55 29 16 24 37 -10 42 -17 3 -32 2 -35 0z"/>
<path d="M7685 4557 c-10 -37 -1 -120 13 -125 9 -3 12 16 12 72 0 74 -13 101
-25 53z"/>
<path d="M7830 4506 c0 -62 3 -76 15 -76 13 0 15 12 13 72 -2 46 -7 73 -15 76
-10 3 -13 -16 -13 -72z"/>
<path d="M7896 4565 c-28 -28 -22 -44 29 -80 25 -17 11 -34 -15 -17 -23 14
-37 -2 -20 -23 17 -20 66 -19 74 1 13 33 5 54 -25 70 -22 11 -28 19 -21 26 8
8 16 7 27 -2 20 -16 33 -4 19 18 -15 23 -48 27 -68 7z"/>
<path d="M8170 4562 c0 -10 5 -44 11 -75 9 -43 16 -57 29 -57 12 0 20 11 24
35 8 43 26 46 26 5 0 -28 22 -51 37 -37 12 12 31 132 23 141 -10 10 -11 8 -27
-54 l-10 -35 -9 45 c-13 59 -35 60 -49 2 -11 -44 -25 -47 -25 -6 0 29 -10 54
-21 54 -5 0 -9 -8 -9 -18z"/>
<path d="M8367 4568 c-26 -19 -33 -82 -13 -113 18 -28 57 -33 76 -10 17 20 4
38 -20 25 -13 -7 -21 -6 -30 5 -11 13 -7 15 24 15 44 0 56 21 35 59 -17 30
-46 38 -72 19z m43 -39 c0 -5 -7 -9 -15 -9 -15 0 -20 12 -9 23 8 8 24 -1 24
-14z"/>
<path d="M8485 4564 c-17 -18 -20 -86 -5 -114 8 -15 21 -19 56 -18 l45 1 -3
69 -3 70 -37 4 c-24 2 -43 -2 -53 -12z m60 -59 c0 -23 -4 -30 -20 -30 -21 0
-31 25 -21 51 11 28 41 12 41 -21z"/>
<path d="M8836 4558 c-33 -47 -9 -128 38 -128 27 0 51 24 41 40 -4 7 -12 7
-26 0 -20 -11 -39 -6 -39 11 0 5 15 9 34 9 42 0 49 10 35 46 -18 49 -57 59
-83 22z m54 -29 c0 -5 -10 -9 -21 -9 -18 0 -19 2 -9 15 12 15 30 12 30 -6z"/>
<path d="M8950 4504 c0 -59 3 -74 15 -74 11 0 15 12 15 45 0 31 5 47 15 51 8
4 15 16 15 28 0 16 -6 21 -30 22 l-30 1 0 -73z"/>
<path d="M11470 4506 c0 -61 3 -76 15 -76 11 0 15 12 15 45 0 31 5 47 15 51
19 8 20 44 1 44 -8 0 -21 3 -30 6 -14 5 -16 -5 -16 -70z"/>
<path d="M11566 4558 c-33 -47 -9 -128 38 -128 27 0 51 24 41 40 -4 7 -12 7
-26 0 -20 -11 -39 -6 -39 11 0 5 15 9 34 9 42 0 49 10 35 46 -18 49 -57 59
-83 22z m54 -29 c0 -5 -9 -9 -20 -9 -22 0 -27 16 -7 23 15 5 27 -1 27 -14z"/>
<path d="M11685 4557 c-19 -28 -19 -77 0 -105 13 -17 24 -21 58 -19 l42 3 3
49 c5 79 -1 90 -48 91 -31 1 -44 -4 -55 -19z m63 -33 c13 -24 3 -54 -19 -54
-24 0 -32 16 -25 46 7 28 31 32 44 8z"/>
<path d="M11917 4568 c-26 -19 -33 -82 -13 -113 18 -28 57 -33 76 -10 17 20 4
38 -20 25 -13 -7 -21 -6 -30 5 -11 13 -7 15 24 15 44 0 56 21 35 59 -17 30
-46 38 -72 19z m43 -39 c0 -5 -7 -9 -15 -9 -15 0 -20 12 -9 23 8 8 24 -1 24
-14z"/>
<path d="M12066 4572 c-3 -3 -6 -36 -6 -74 0 -54 3 -68 15 -68 11 0 15 11 15
43 0 50 12 72 34 64 12 -5 16 -20 16 -57 0 -38 4 -50 15 -50 11 0 15 12 15 50
0 37 4 52 16 57 22 8 34 -14 34 -65 0 -59 24 -51 28 9 3 58 -16 95 -49 91 -30
-3 -34 -3 -86 2 -23 2 -44 1 -47 -2z"/>
<path d="M12270 4568 c0 -7 9 -41 20 -76 15 -47 17 -68 9 -89 -11 -30 -4 -62
11 -47 9 9 70 197 70 215 0 5 -5 9 -10 9 -10 0 -18 -16 -35 -65 -6 -17 -10
-14 -26 23 -17 40 -39 57 -39 30z"/>
<path d="M12520 4506 c0 -62 3 -76 15 -76 13 0 15 12 13 72 -2 46 -7 73 -15
76 -10 3 -13 -16 -13 -72z"/>
<path d="M12580 4505 c0 -57 3 -76 13 -73 6 3 13 24 15 49 2 25 10 47 18 52
18 10 18 37 0 37 -8 0 -21 3 -30 6 -14 5 -16 -5 -16 -71z"/>
<path d="M12670 4566 c-19 -23 -8 -59 23 -74 37 -18 35 -35 -3 -27 -32 7 -40
-5 -16 -25 35 -28 92 11 70 48 -6 9 -20 21 -32 27 -12 5 -22 15 -22 22 0 15
16 17 25 3 10 -17 25 -11 25 9 0 31 -48 42 -70 17z"/>
<path d="M12903 4564 c-8 -21 2 -204 12 -207 6 -1 11 16 13 39 3 38 5 41 29
36 18 -3 30 1 40 13 19 27 17 99 -4 116 -19 17 -84 19 -90 3z m72 -59 c0 -23
-4 -30 -20 -30 -21 0 -31 25 -21 51 11 28 41 12 41 -21z"/>
<path d="M13046 4561 c-33 -36 -20 -117 20 -127 34 -9 53 1 65 33 28 75 -37
147 -85 94z m59 -40 c8 -26 -4 -51 -26 -51 -14 0 -19 7 -19 28 0 16 3 32 7 35
12 13 32 7 38 -12z"/>
<path d="M13170 4566 c-19 -23 -8 -59 23 -74 15 -7 27 -17 27 -23 0 -13 -27
-11 -36 2 -4 7 -9 8 -17 0 -16 -16 12 -43 41 -39 52 6 54 60 4 83 -12 5 -22
15 -22 22 0 16 12 17 28 1 8 -8 15 -9 23 -1 7 7 5 15 -6 27 -20 20 -49 21 -65
2z"/>
<path d="M7518 4123 c6 -2 18 -2 25 0 6 3 1 5 -13 5 -14 0 -19 -2 -12 -5z"/>
<path d="M7680 4100 c0 -5 5 -10 10 -10 6 0 10 5 10 10 0 6 -4 10 -10 10 -5 0
-10 -4 -10 -10z"/>
<path d="M8140 4100 c0 -5 5 -10 10 -10 6 0 10 5 10 10 0 6 -4 10 -10 10 -5 0
-10 -4 -10 -10z"/>
<path d="M8765 4100 c-3 -5 1 -10 10 -10 9 0 13 5 10 10 -3 6 -8 10 -10 10 -2
0 -7 -4 -10 -10z"/>
<path d="M9760 4100 c0 -5 5 -10 10 -10 6 0 10 5 10 10 0 6 -4 10 -10 10 -5 0
-10 -4 -10 -10z"/>
<path d="M12750 4100 c0 -5 5 -10 10 -10 6 0 10 5 10 10 0 6 -4 10 -10 10 -5
0 -10 -4 -10 -10z"/>
<path d="M13160 4100 c0 -5 7 -10 16 -10 8 0 12 5 9 10 -3 6 -10 10 -16 10 -5
0 -9 -4 -9 -10z"/>
<path d="M13780 4100 c0 -5 5 -10 10 -10 6 0 10 5 10 10 0 6 -4 10 -10 10 -5
0 -10 -4 -10 -10z"/>
<path d="M13920 4100 c0 -5 5 -10 10 -10 6 0 10 5 10 10 0 6 -4 10 -10 10 -5
0 -10 -4 -10 -10z"/>
<path d="M7870 4093 c8 -3 19 -11 23 -17 6 -7 7 -6 4 4 -2 8 -12 16 -23 17
-13 2 -15 1 -4 -4z"/>
<path d="M8088 4093 c7 -3 16 -2 19 1 4 3 -2 6 -13 5 -11 0 -14 -3 -6 -6z"/>
<path d="M8418 4093 c7 -3 16 -2 19 1 4 3 -2 6 -13 5 -11 0 -14 -3 -6 -6z"/>
<path d="M8838 4093 c7 -3 16 -2 19 1 4 3 -2 6 -13 5 -11 0 -14 -3 -6 -6z"/>
<path d="M9048 4093 c7 -3 16 -2 19 1 4 3 -2 6 -13 5 -11 0 -14 -3 -6 -6z"/>
<path d="M9348 4093 c7 -3 16 -2 19 1 4 3 -2 6 -13 5 -11 0 -14 -3 -6 -6z"/>
<path d="M11398 4093 c7 -3 16 -2 19 1 4 3 -2 6 -13 5 -11 0 -14 -3 -6 -6z"/>
<path d="M11538 4093 c7 -3 16 -2 19 1 4 3 -2 6 -13 5 -11 0 -14 -3 -6 -6z"/>
<path d="M11640 4090 c8 -5 20 -10 25 -10 6 0 3 5 -5 10 -8 5 -19 10 -25 10
-5 0 -3 -5 5 -10z"/>
<path d="M11688 4093 c7 -3 16 -2 19 1 4 3 -2 6 -13 5 -11 0 -14 -3 -6 -6z"/>
<path d="M11928 4093 c7 -3 16 -2 19 1 4 3 -2 6 -13 5 -11 0 -14 -3 -6 -6z"/>
<path d="M12075 4090 c-3 -5 -1 -10 4 -10 6 0 11 5 11 10 0 6 -2 10 -4 10 -3
0 -8 -4 -11 -10z"/>
<path d="M12110 4090 c8 -5 20 -10 25 -10 6 0 3 5 -5 10 -8 5 -19 10 -25 10
-5 0 -3 -5 5 -10z"/>
<path d="M12368 4093 c7 -3 16 -2 19 1 4 3 -2 6 -13 5 -11 0 -14 -3 -6 -6z"/>
<path d="M13388 4093 c7 -3 16 -2 19 1 4 3 -2 6 -13 5 -11 0 -14 -3 -6 -6z"/>
<path d="M13558 4093 c7 -3 16 -2 19 1 4 3 -2 6 -13 5 -11 0 -14 -3 -6 -6z"/>
<path d="M13638 4093 c7 -3 16 -2 19 1 4 3 -2 6 -13 5 -11 0 -14 -3 -6 -6z"/>
<path d="M13728 4093 c7 -3 16 -2 19 1 4 3 -2 6 -13 5 -11 0 -14 -3 -6 -6z"/>
<path d="M13858 4093 c7 -3 16 -2 19 1 4 3 -2 6 -13 5 -11 0 -14 -3 -6 -6z"/>
<path d="M12305 4080 c3 -5 8 -10 11 -10 2 0 4 5 4 10 0 6 -5 10 -11 10 -5 0
-7 -4 -4 -10z"/>
<path d="M7510 4069 c0 -5 5 -7 10 -4 6 3 10 8 10 11 0 2 -4 4 -10 4 -5 0 -10
-5 -10 -11z"/>
<path d="M8231 4054 c0 -11 3 -14 6 -6 3 7 2 16 -1 19 -3 4 -6 -2 -5 -13z"/>
<path d="M8331 4054 c0 -11 3 -14 6 -6 3 7 2 16 -1 19 -3 4 -6 -2 -5 -13z"/>
<path d="M11510 4050 c0 -5 5 -10 10 -10 6 0 10 5 10 10 0 6 -4 10 -10 10 -5
0 -10 -4 -10 -10z"/>
<path d="M13610 4049 c0 -5 5 -7 10 -4 6 3 10 8 10 11 0 2 -4 4 -10 4 -5 0
-10 -5 -10 -11z"/>
<path d="M9621 4024 c0 -11 3 -14 6 -6 3 7 2 16 -1 19 -3 4 -6 -2 -5 -13z"/>
<path d="M12306 4031 c-4 -7 -5 -15 -2 -18 9 -9 19 4 14 18 -4 11 -6 11 -12 0z"/>
<path d="M8961 4014 c0 -11 3 -14 6 -6 3 7 2 16 -1 19 -3 4 -6 -2 -5 -13z"/>
<path d="M12030 4020 c0 -5 5 -10 10 -10 6 0 10 5 10 10 0 6 -4 10 -10 10 -5
0 -10 -4 -10 -10z"/>
<path d="M9577 4009 c7 -7 15 -10 18 -7 3 3 -2 9 -12 12 -14 6 -15 5 -6 -5z"/>
<path d="M12857 4009 c7 -7 15 -10 18 -7 3 3 -2 9 -12 12 -14 6 -15 5 -6 -5z"/>
<path d="M7518 4003 c6 -2 18 -2 25 0 6 3 1 5 -13 5 -14 0 -19 -2 -12 -5z"/>
<path d="M11328 4003 c7 -3 16 -2 19 1 4 3 -2 6 -13 5 -11 0 -14 -3 -6 -6z"/>
<path d="M12375 3820 c-4 -6 3 -10 14 -10 25 0 27 6 6 13 -8 4 -17 2 -20 -3z"/>
<path d="M3648 3813 c6 -2 18 -2 25 0 6 3 1 5 -13 5 -14 0 -19 -2 -12 -5z"/>
<path d="M4358 3813 c6 -2 18 -2 25 0 6 3 1 5 -13 5 -14 0 -19 -2 -12 -5z"/>
<path d="M6261 3794 c0 -11 3 -14 6 -6 3 7 2 16 -1 19 -3 4 -6 -2 -5 -13z"/>
<path d="M4080 3790 c0 -5 5 -10 10 -10 6 0 10 5 10 10 0 6 -4 10 -10 10 -5 0
-10 -4 -10 -10z"/>
<path d="M4560 3789 c0 -5 5 -7 10 -4 6 3 10 8 10 11 0 2 -4 4 -10 4 -5 0 -10
-5 -10 -11z"/>
<path d="M5150 3784 c8 -10 15 -20 16 -22 1 -2 4 1 7 5 3 5 -4 15 -16 23 -21
12 -21 12 -7 -6z"/>
<path d="M5340 3789 c0 -5 5 -7 10 -4 6 3 10 8 10 11 0 2 -4 4 -10 4 -5 0 -10
-5 -10 -11z"/>
<path d="M6080 3790 c0 -5 5 -10 10 -10 6 0 10 5 10 10 0 6 -4 10 -10 10 -5 0
-10 -4 -10 -10z"/>
<path d="M7715 3790 c3 -5 8 -10 11 -10 2 0 4 5 4 10 0 6 -5 10 -11 10 -5 0
-7 -4 -4 -10z"/>
<path d="M12230 3789 c0 -5 5 -7 10 -4 6 3 10 8 10 11 0 2 -4 4 -10 4 -5 0
-10 -5 -10 -11z"/>
<path d="M13440 3790 c0 -5 5 -10 10 -10 6 0 10 5 10 10 0 6 -4 10 -10 10 -5
0 -10 -4 -10 -10z"/>
<path d="M13760 3789 c0 -5 5 -7 10 -4 6 3 10 8 10 11 0 2 -4 4 -10 4 -5 0
-10 -5 -10 -11z"/>
<path d="M3961 3774 c0 -11 3 -14 6 -6 3 7 2 16 -1 19 -3 4 -6 -2 -5 -13z"/>
<path d="M4515 3780 c-3 -5 -1 -10 4 -10 6 0 11 5 11 10 0 6 -2 10 -4 10 -3 0
-8 -4 -11 -10z"/>
<path d="M5845 3780 c-3 -5 -1 -10 4 -10 6 0 11 5 11 10 0 6 -2 10 -4 10 -3 0
-8 -4 -11 -10z"/>
<path d="M5991 3774 c0 -11 3 -14 6 -6 3 7 2 16 -1 19 -3 4 -6 -2 -5 -13z"/>
<path d="M7821 3774 c0 -11 3 -14 6 -6 3 7 2 16 -1 19 -3 4 -6 -2 -5 -13z"/>
<path d="M8710 3781 c0 -6 5 -13 10 -16 6 -3 10 1 10 9 0 9 -4 16 -10 16 -5 0
-10 -4 -10 -9z"/>
<path d="M9800 3781 c0 -5 5 -13 10 -16 6 -3 10 -2 10 4 0 5 -4 13 -10 16 -5
3 -10 2 -10 -4z"/>
<path d="M11371 3774 c0 -11 3 -14 6 -6 3 7 2 16 -1 19 -3 4 -6 -2 -5 -13z"/>
<path d="M11460 3781 c0 -6 5 -13 10 -16 6 -3 10 1 10 9 0 9 -4 16 -10 16 -5
0 -10 -4 -10 -9z"/>
<path d="M12001 3774 c0 -11 3 -14 6 -6 3 7 2 16 -1 19 -3 4 -6 -2 -5 -13z"/>
<path d="M12711 3774 c0 -11 3 -14 6 -6 3 7 2 16 -1 19 -3 4 -6 -2 -5 -13z"/>
<path d="M13901 3774 c0 -11 3 -14 6 -6 3 7 2 16 -1 19 -3 4 -6 -2 -5 -13z"/>
<path d="M3791 3744 c0 -11 3 -14 6 -6 3 7 2 16 -1 19 -3 4 -6 -2 -5 -13z"/>
<path d="M4891 3744 c0 -11 3 -14 6 -6 3 7 2 16 -1 19 -3 4 -6 -2 -5 -13z"/>
<path d="M5251 3744 c0 -11 3 -14 6 -6 3 7 2 16 -1 19 -3 4 -6 -2 -5 -13z"/>
<path d="M7860 3745 c0 -8 5 -15 10 -15 6 0 10 7 10 15 0 8 -4 15 -10 15 -5 0
-10 -7 -10 -15z"/>
<path d="M7931 3744 c0 -11 3 -14 6 -6 3 7 2 16 -1 19 -3 4 -6 -2 -5 -13z"/>
<path d="M8750 3744 c0 -8 5 -12 10 -9 6 4 8 11 5 16 -9 14 -15 11 -15 -7z"/>
<path d="M12075 3751 c-3 -5 -1 -12 5 -16 5 -3 10 1 10 9 0 18 -6 21 -15 7z"/>
<path d="M12830 3744 c0 -8 5 -12 10 -9 6 4 8 11 5 16 -9 14 -15 11 -15 -7z"/>
<path d="M13600 3739 c0 -5 5 -7 10 -4 6 3 10 8 10 11 0 2 -4 4 -10 4 -5 0
-10 -5 -10 -11z"/>
<path d="M3961 3714 c0 -11 3 -14 6 -6 3 7 2 16 -1 19 -3 4 -6 -2 -5 -13z"/>
<path d="M5991 3714 c0 -11 3 -14 6 -6 3 7 2 16 -1 19 -3 4 -6 -2 -5 -13z"/>
<path d="M7821 3714 c0 -11 3 -14 6 -6 3 7 2 16 -1 19 -3 4 -6 -2 -5 -13z"/>
<path d="M8716 3721 c-4 -7 -5 -15 -2 -18 9 -9 19 4 14 18 -4 11 -6 11 -12 0z"/>
<path d="M9807 3723 c-4 -3 -7 -11 -7 -17 0 -6 5 -5 12 2 6 6 9 14 7 17 -3 3
-9 2 -12 -2z"/>
<path d="M11371 3714 c0 -11 3 -14 6 -6 3 7 2 16 -1 19 -3 4 -6 -2 -5 -13z"/>
<path d="M11467 3723 c-4 -3 -7 -11 -7 -17 0 -6 5 -5 12 2 6 6 9 14 7 17 -3 3
-9 2 -12 -2z"/>
<path d="M12001 3714 c0 -11 3 -14 6 -6 3 7 2 16 -1 19 -3 4 -6 -2 -5 -13z"/>
<path d="M12711 3714 c0 -11 3 -14 6 -6 3 7 2 16 -1 19 -3 4 -6 -2 -5 -13z"/>
<path d="M13901 3714 c0 -11 3 -14 6 -6 3 7 2 16 -1 19 -3 4 -6 -2 -5 -13z"/>
<path d="M5840 3710 c0 -5 5 -10 11 -10 5 0 7 5 4 10 -3 6 -8 10 -11 10 -2 0
-4 -4 -4 -10z"/>
<path d="M8192 3704 c10 -10 20 -16 22 -13 3 3 -5 11 -17 18 -21 13 -21 12 -5
-5z"/>
<path d="M12505 3710 c-3 -5 -1 -10 4 -10 6 0 11 5 11 10 0 6 -2 10 -4 10 -3
0 -8 -4 -11 -10z"/>
<path d="M12795 3710 c-3 -5 -1 -10 4 -10 6 0 11 5 11 10 0 6 -2 10 -4 10 -3
0 -8 -4 -11 -10z"/>
<path d="M3795 3700 c3 -5 11 -10 16 -10 6 0 7 5 4 10 -3 6 -11 10 -16 10 -6
0 -7 -4 -4 -10z"/>
<path d="M3920 3700 c0 -5 5 -10 11 -10 5 0 7 5 4 10 -3 6 -8 10 -11 10 -2 0
-4 -4 -4 -10z"/>
<path d="M4627 3699 c7 -7 15 -10 18 -7 3 3 -2 9 -12 12 -14 6 -15 5 -6 -5z"/>
<path d="M4997 3699 c7 -7 15 -10 18 -7 3 3 -2 9 -12 12 -14 6 -15 5 -6 -5z"/>
<path d="M5587 3699 c7 -7 15 -10 18 -7 3 3 -2 9 -12 12 -14 6 -15 5 -6 -5z"/>
<path d="M5740 3700 c0 -6 7 -10 15 -10 8 0 15 2 15 4 0 2 -7 6 -15 10 -8 3
-15 1 -15 -4z"/>
<path d="M5875 3700 c-3 -5 -1 -10 4 -10 6 0 11 5 11 10 0 6 -2 10 -4 10 -3 0
-8 -4 -11 -10z"/>
<path d="M5950 3700 c0 -5 5 -10 11 -10 5 0 7 5 4 10 -3 6 -8 10 -11 10 -2 0
-4 -4 -4 -10z"/>
<path d="M7650 3700 c0 -6 7 -10 15 -10 8 0 15 2 15 4 0 2 -7 6 -15 10 -8 3
-15 1 -15 -4z"/>
<path d="M7780 3700 c0 -5 5 -10 11 -10 5 0 7 5 4 10 -3 6 -8 10 -11 10 -2 0
-4 -4 -4 -10z"/>
<path d="M8377 3699 c7 -7 15 -10 18 -7 3 3 -2 9 -12 12 -14 6 -15 5 -6 -5z"/>
<path d="M8507 3699 c7 -7 15 -10 18 -7 3 3 -2 9 -12 12 -14 6 -15 5 -6 -5z"/>
<path d="M8960 3700 c-9 -6 -10 -10 -3 -10 6 0 15 5 18 10 8 12 4 12 -15 0z"/>
<path d="M9037 3699 c7 -7 15 -10 18 -7 3 3 -2 9 -12 12 -14 6 -15 5 -6 -5z"/>
<path d="M9420 3700 c0 -5 5 -10 11 -10 5 0 7 5 4 10 -3 6 -8 10 -11 10 -2 0
-4 -4 -4 -10z"/>
<path d="M9570 3700 c-9 -6 -10 -10 -3 -10 6 0 15 5 18 10 8 12 4 12 -15 0z"/>
<path d="M9850 3700 c0 -6 7 -10 15 -10 8 0 15 2 15 4 0 2 -7 6 -15 10 -8 3
-15 1 -15 -4z"/>
<path d="M9930 3700 c0 -5 5 -10 11 -10 5 0 7 5 4 10 -3 6 -8 10 -11 10 -2 0
-4 -4 -4 -10z"/>
<path d="M11330 3700 c0 -5 5 -10 11 -10 5 0 7 5 4 10 -3 6 -8 10 -11 10 -2 0
-4 -4 -4 -10z"/>
<path d="M11427 3699 c7 -7 15 -10 18 -7 3 3 -2 9 -12 12 -14 6 -15 5 -6 -5z"/>
<path d="M11960 3700 c0 -5 5 -10 11 -10 5 0 7 5 4 10 -3 6 -8 10 -11 10 -2 0
-4 -4 -4 -10z"/>
<path d="M12390 3700 c-13 -8 -12 -10 3 -10 9 0 17 5 17 10 0 12 -1 12 -20 0z"/>
<path d="M12470 3700 c0 -5 5 -10 11 -10 5 0 7 5 4 10 -3 6 -8 10 -11 10 -2 0
-4 -4 -4 -10z"/>
<path d="M12590 3700 c0 -6 7 -10 15 -10 8 0 15 2 15 4 0 2 -7 6 -15 10 -8 3
-15 1 -15 -4z"/>
<path d="M12670 3700 c0 -5 5 -10 11 -10 5 0 7 5 4 10 -3 6 -8 10 -11 10 -2 0
-4 -4 -4 -10z"/>
<path d="M13350 3700 c-9 -6 -10 -10 -3 -10 6 0 15 5 18 10 8 12 4 12 -15 0z"/>
<path d="M13867 3699 c7 -7 15 -10 18 -7 3 3 -2 9 -12 12 -14 6 -15 5 -6 -5z"/>
<path d="M13957 3699 c7 -7 15 -10 18 -7 3 3 -2 9 -12 12 -14 6 -15 5 -6 -5z"/>
<path d="M4448 3693 c7 -3 16 -2 19 1 4 3 -2 6 -13 5 -11 0 -14 -3 -6 -6z"/>
<path d="M4918 3693 c7 -3 16 -2 19 1 4 3 -2 6 -13 5 -11 0 -14 -3 -6 -6z"/>
<path d="M8778 3693 c7 -3 16 -2 19 1 4 3 -2 6 -13 5 -11 0 -14 -3 -6 -6z"/>
<path d="M9218 3693 c7 -3 16 -2 19 1 4 3 -2 6 -13 5 -11 0 -14 -3 -6 -6z"/>
<path d="M9688 3693 c7 -3 16 -2 19 1 4 3 -2 6 -13 5 -11 0 -14 -3 -6 -6z"/>
<path d="M10078 3693 c7 -3 16 -2 19 1 4 3 -2 6 -13 5 -11 0 -14 -3 -6 -6z"/>
<path d="M12858 3693 c7 -3 16 -2 19 1 4 3 -2 6 -13 5 -11 0 -14 -3 -6 -6z"/>
<path d="M13628 3693 c7 -3 16 -2 19 1 4 3 -2 6 -13 5 -11 0 -14 -3 -6 -6z"/>
<path d="M4055 3491 c-3 -5 -1 -12 5 -16 5 -3 10 1 10 9 0 18 -6 21 -15 7z"/>
<path d="M5200 3484 c0 -8 5 -12 10 -9 6 4 8 11 5 16 -9 14 -15 11 -15 -7z"/>
<path d="M3615 3480 c3 -5 8 -10 11 -10 2 0 4 5 4 10 0 6 -5 10 -11 10 -5 0
-7 -4 -4 -10z"/>
<path d="M4485 3480 c3 -5 8 -10 11 -10 2 0 4 5 4 10 0 6 -5 10 -11 10 -5 0
-7 -4 -4 -10z"/>
<path d="M5010 3479 c0 -5 5 -7 10 -4 6 3 10 8 10 11 0 2 -4 4 -10 4 -5 0 -10
-5 -10 -11z"/>
<path d="M13340 3479 c0 -5 5 -7 10 -4 6 3 10 8 10 11 0 2 -4 4 -10 4 -5 0
-10 -5 -10 -11z"/>
<path d="M14120 3479 c0 -5 5 -7 10 -4 6 3 10 8 10 11 0 2 -4 4 -10 4 -5 0
-10 -5 -10 -11z"/>
<path d="M7700 3470 c0 -5 5 -10 11 -10 5 0 7 5 4 10 -3 6 -8 10 -11 10 -2 0
-4 -4 -4 -10z"/>
<path d="M8890 3470 c0 -5 5 -10 11 -10 5 0 7 5 4 10 -3 6 -8 10 -11 10 -2 0
-4 -4 -4 -10z"/>
<path d="M10101 3464 c0 -11 3 -14 6 -6 3 7 2 16 -1 19 -3 4 -6 -2 -5 -13z"/>
<path d="M11781 3464 c0 -11 3 -14 6 -6 3 7 2 16 -1 19 -3 4 -6 -2 -5 -13z"/>
<path d="M12351 3464 c0 -11 3 -14 6 -6 3 7 2 16 -1 19 -3 4 -6 -2 -5 -13z"/>
<path d="M12590 3471 c0 -5 5 -13 10 -16 6 -3 10 -2 10 4 0 5 -4 13 -10 16 -5
3 -10 2 -10 -4z"/>
<path d="M12930 3469 c0 -5 5 -7 10 -4 6 3 10 8 10 11 0 2 -4 4 -10 4 -5 0
-10 -5 -10 -11z"/>
<path d="M13070 3470 c0 -5 5 -10 10 -10 6 0 10 5 10 10 0 6 -4 10 -10 10 -5
0 -10 -4 -10 -10z"/>
<path d="M13911 3464 c0 -11 3 -14 6 -6 3 7 2 16 -1 19 -3 4 -6 -2 -5 -13z"/>
<path d="M5421 3434 c0 -11 3 -14 6 -6 3 7 2 16 -1 19 -3 4 -6 -2 -5 -13z"/>
<path d="M6251 3434 c0 -11 3 -14 6 -6 3 7 2 16 -1 19 -3 4 -6 -2 -5 -13z"/>
<path d="M12841 3434 c0 -11 3 -14 6 -6 3 7 2 16 -1 19 -3 4 -6 -2 -5 -13z"/>
<path d="M13165 3440 c-3 -5 -1 -10 4 -10 6 0 11 5 11 10 0 6 -2 10 -4 10 -3
0 -8 -4 -11 -10z"/>
<path d="M3925 3420 c-3 -5 -1 -10 4 -10 6 0 11 5 11 10 0 6 -2 10 -4 10 -3 0
-8 -4 -11 -10z"/>
<path d="M10102 3410 c0 -14 2 -19 5 -12 2 6 2 18 0 25 -3 6 -5 1 -5 -13z"/>
<path d="M8895 3410 c-3 -5 -1 -10 4 -10 6 0 11 5 11 10 0 6 -2 10 -4 10 -3 0
-8 -4 -11 -10z"/>
<path d="M9051 3404 c0 -11 3 -14 6 -6 3 7 2 16 -1 19 -3 4 -6 -2 -5 -13z"/>
<path d="M12041 3404 c0 -11 3 -14 6 -6 3 7 2 16 -1 19 -3 4 -6 -2 -5 -13z"/>
<path d="M12595 3410 c-3 -5 -1 -10 4 -10 6 0 11 5 11 10 0 6 -2 10 -4 10 -3
0 -8 -4 -11 -10z"/>
<path d="M13075 3410 c-3 -5 -1 -10 4 -10 6 0 11 5 11 10 0 6 -2 10 -4 10 -3
0 -8 -4 -11 -10z"/>
<path d="M13911 3404 c0 -11 3 -14 6 -6 3 7 2 16 -1 19 -3 4 -6 -2 -5 -13z"/>
<path d="M4320 3400 c0 -5 5 -10 11 -10 5 0 7 5 4 10 -3 6 -8 10 -11 10 -2 0
-4 -4 -4 -10z"/>
<path d="M11321 3184 c0 -11 3 -14 6 -6 3 7 2 16 -1 19 -3 4 -6 -2 -5 -13z"/>
<path d="M8420 3174 c0 -8 5 -12 10 -9 6 4 8 11 5 16 -9 14 -15 11 -15 -7z"/>
<path d="M9120 3180 c0 -5 5 -10 10 -10 6 0 10 5 10 10 0 6 -4 10 -10 10 -5 0
-10 -4 -10 -10z"/>
<path d="M11825 3180 c-3 -5 1 -10 10 -10 9 0 13 5 10 10 -3 6 -8 10 -10 10
-2 0 -7 -4 -10 -10z"/>
<path d="M3758 3173 c7 -3 16 -2 19 1 4 3 -2 6 -13 5 -11 0 -14 -3 -6 -6z"/>
<path d="M4018 3173 c7 -3 16 -2 19 1 4 3 -2 6 -13 5 -11 0 -14 -3 -6 -6z"/>
<path d="M4178 3173 c7 -3 16 -2 19 1 4 3 -2 6 -13 5 -11 0 -14 -3 -6 -6z"/>
<path d="M7568 3173 c7 -3 16 -2 19 1 4 3 -2 6 -13 5 -11 0 -14 -3 -6 -6z"/>
<path d="M7778 3173 c7 -3 16 -2 19 1 4 3 -2 6 -13 5 -11 0 -14 -3 -6 -6z"/>
<path d="M7998 3173 c7 -3 16 -2 19 1 4 3 -2 6 -13 5 -11 0 -14 -3 -6 -6z"/>
<path d="M8106 3166 c10 -8 21 -12 24 -10 5 6 -21 24 -34 24 -6 0 -1 -6 10
-14z"/>
<path d="M8148 3173 c7 -3 16 -2 19 1 4 3 -2 6 -13 5 -11 0 -14 -3 -6 -6z"/>
<path d="M8358 3173 c7 -3 16 -2 19 1 4 3 -2 6 -13 5 -11 0 -14 -3 -6 -6z"/>
<path d="M8798 3173 c7 -3 16 -2 19 1 4 3 -2 6 -13 5 -11 0 -14 -3 -6 -6z"/>
<path d="M12208 3173 c7 -3 16 -2 19 1 4 3 -2 6 -13 5 -11 0 -14 -3 -6 -6z"/>
<path d="M12145 3160 c3 -5 8 -10 11 -10 2 0 4 5 4 10 0 6 -5 10 -11 10 -5 0
-7 -4 -4 -10z"/>
<path d="M3822 3130 c0 -14 2 -19 5 -12 2 6 2 18 0 25 -3 6 -5 1 -5 -13z"/>
<path d="M8472 3130 c0 -14 2 -19 5 -12 2 6 2 18 0 25 -3 6 -5 1 -5 -13z"/>
<path d="M4155 3130 c3 -5 8 -10 11 -10 2 0 4 5 4 10 0 6 -5 10 -11 10 -5 0
-7 -4 -4 -10z"/>
<path d="M8330 3129 c0 -5 5 -7 10 -4 6 3 10 8 10 11 0 2 -4 4 -10 4 -5 0 -10
-5 -10 -11z"/>
<path d="M11371 3104 c0 -11 3 -14 6 -6 3 7 2 16 -1 19 -3 4 -6 -2 -5 -13z"/>
<path d="M8211 3094 c0 -11 3 -14 6 -6 3 7 2 16 -1 19 -3 4 -6 -2 -5 -13z"/>
<path d="M8995 3100 c-3 -5 -1 -10 4 -10 6 0 11 5 11 10 0 6 -2 10 -4 10 -3 0
-8 -4 -11 -10z"/>
<path d="M11460 3100 c0 -5 5 -10 10 -10 6 0 10 5 10 10 0 6 -4 10 -10 10 -5
0 -10 -4 -10 -10z"/>
<path d="M12145 3100 c-3 -5 -1 -10 4 -10 6 0 11 5 11 10 0 6 -2 10 -4 10 -3
0 -8 -4 -11 -10z"/>
<path d="M7647 3089 c7 -7 15 -10 18 -7 3 3 -2 9 -12 12 -14 6 -15 5 -6 -5z"/>
<path d="M7568 3083 c7 -3 16 -2 19 1 4 3 -2 6 -13 5 -11 0 -14 -3 -6 -6z"/>
<path d="M7998 3083 c7 -3 16 -2 19 1 4 3 -2 6 -13 5 -11 0 -14 -3 -6 -6z"/>
<path d="M8358 3083 c7 -3 16 -2 19 1 4 3 -2 6 -13 5 -11 0 -14 -3 -6 -6z"/>
<path d="M3664 2549 c-47 -24 -59 -64 -62 -223 -5 -194 1 -231 43 -273 l33
-33 111 0 c187 0 201 18 201 270 0 251 -14 270 -197 269 -59 0 -117 -5 -129
-10z"/>
<path d="M7560 2538 c-24 -26 -27 -73 -5 -82 13 -5 15 -20 13 -78 l-3 -73 -48
-7 c-27 -4 -52 -10 -55 -13 -4 -4 -7 -46 -7 -95 0 -62 5 -93 15 -105 14 -17
16 -14 22 34 6 56 37 101 69 101 39 0 49 11 49 55 0 24 -5 47 -10 50 -10 6 -6
112 4 122 2 3 20 6 38 6 28 2 34 -2 36 -22 2 -15 -3 -28 -12 -33 -25 -14 -19
-29 9 -22 27 7 31 -3 16 -41 -8 -19 -8 -19 -19 0 -10 18 -11 18 -12 -8 0 -18
4 -26 11 -21 13 8 1 -38 -12 -46 -5 -3 0 -14 11 -23 25 -21 30 -21 30 -2 0 8
9 15 19 15 17 0 19 9 23 87 2 57 7 88 16 91 17 5 15 59 -5 92 -19 33 -38 40
-115 40 -46 0 -61 -4 -78 -22z"/>
<path d="M11374 2550 c-12 -4 -32 -23 -45 -41 -21 -30 -23 -43 -24 -178 -1
-187 -1 -185 37 -150 16 15 34 31 39 36 5 4 22 22 38 40 27 31 27 33 13 63
-11 23 -12 34 -3 43 8 8 14 8 23 -1 14 -14 48 -16 48 -3 0 11 -25 21 -50 21
-19 0 -30 17 -23 38 12 32 68 -1 98 -58 8 -16 22 -33 30 -38 18 -10 9 -46 -10
-39 -6 3 -17 -3 -23 -14 -6 -10 -27 -21 -47 -25 -19 -3 -37 -10 -40 -14 -8
-13 38 -41 48 -31 6 6 19 6 33 1 20 -8 26 -4 43 24 12 18 21 40 21 49 0 25 18
30 29 8 6 -11 11 -32 11 -46 0 -24 32 -64 53 -65 4 0 7 71 7 158 l0 158 -27
31 c-28 31 -30 31 -143 37 -63 3 -125 1 -136 -4z m185 -56 c25 -32 21 -40 -21
-48 -76 -15 -109 -3 -87 32 29 46 79 53 108 16z"/>
<path d="M8151 2502 c-6 -12 -7 -36 -3 -63 l8 -44 8 58 c8 63 4 80 -13 49z"/>
<path d="M4243 2455 c0 -33 2 -45 4 -27 2 18 2 45 0 60 -2 15 -4 0 -4 -33z"/>
<path d="M4509 2503 c-1 -5 0 -26 1 -48 2 -59 20 -69 20 -12 0 26 5 47 11 47
5 0 7 5 4 10 -7 12 -35 14 -36 3z"/>
<path d="M4930 2497 c0 -10 -8 -17 -19 -17 -23 0 -35 -30 -26 -61 5 -15 14
-19 33 -17 24 3 27 8 30 47 2 24 -2 49 -7 54 -8 8 -11 6 -11 -6z m-2 -54 c-5
-25 -28 -28 -28 -4 0 12 6 21 16 21 9 0 14 -7 12 -17z"/>
<path d="M8005 2500 c-3 -5 -1 -10 4 -10 6 0 12 -21 13 -47 1 -48 1 -48 5 -8
3 22 9 45 14 51 5 6 6 14 2 17 -10 10 -31 8 -38 -3z"/>
<path d="M11938 2459 c-1 -28 0 -53 5 -56 4 -2 7 21 7 51 0 70 -7 73 -12 5z"/>
<path d="M12037 2503 c-4 -3 -7 -29 -7 -57 1 -43 3 -49 13 -34 12 15 14 15 25
0 11 -15 12 -15 10 3 -1 11 2 31 6 44 6 19 4 28 -10 38 -20 15 -28 16 -37 6z
m33 -34 c0 -5 -4 -9 -10 -9 -5 0 -10 7 -10 16 0 8 5 12 10 9 6 -3 10 -10 10
-16z"/>
<path d="M4166 2464 c-4 -19 -10 -42 -13 -51 -5 -13 -3 -13 15 -2 17 10 23 10
36 0 19 -16 19 -13 5 45 -14 53 -34 57 -43 8z"/>
<path d="M4270 2467 c0 -38 8 -67 19 -67 12 0 6 93 -6 98 -9 2 -13 -8 -13 -31z"/>
<path d="M8320 2448 c1 -47 2 -51 14 -35 13 17 14 17 21 0 6 -16 8 -15 20 7
11 19 14 21 15 8 0 -10 5 -18 10 -18 6 0 10 21 10 46 0 48 -20 58 -30 15 -3
-12 -9 -22 -15 -22 -5 0 -12 10 -15 22 -3 12 -11 24 -18 27 -8 2 -12 -12 -12
-50z"/>
<path d="M11866 2473 c-3 -16 -9 -39 -12 -51 -6 -22 -5 -23 14 -11 17 11 23
10 38 -2 16 -12 17 -12 11 3 -3 9 -9 33 -13 52 -7 43 -29 47 -38 9z"/>
<path d="M8437 2475 c-21 -20 -22 -49 -2 -65 35 -29 66 24 36 61 -16 20 -18
20 -34 4z m31 -32 c-5 -25 -28 -28 -28 -4 0 12 6 21 16 21 9 0 14 -7 12 -17z"/>
<path d="M4316 2469 c-4 -8 -2 -28 4 -43 14 -38 54 -33 58 8 2 16 -1 33 -7 39
-8 8 -11 2 -11 -22 0 -41 -22 -37 -31 5 -4 22 -8 25 -13 13z"/>
<path d="M4402 2438 c1 -37 2 -39 5 -10 3 18 10 32 18 32 8 0 15 -13 17 -32 3
-26 6 -29 12 -15 14 30 -1 67 -29 67 -23 0 -25 -3 -23 -42z"/>
<path d="M4565 2461 c-11 -36 3 -63 33 -59 24 3 27 8 27 38 0 30 -3 35 -27 38
-19 2 -28 -2 -33 -17z m43 -18 c-5 -25 -28 -28 -28 -4 0 12 6 21 16 21 9 0 14
-7 12 -17z"/>
<path d="M4647 2473 c-11 -10 -8 -61 3 -68 6 -3 10 5 10 19 0 14 5 28 10 31 6
3 10 10 10 16 0 10 -23 12 -33 2z"/>
<path d="M4694 2465 c12 -50 18 -65 27 -65 5 0 9 1 9 3 0 1 4 17 9 35 6 20 6
32 0 32 -5 0 -9 -8 -9 -17 0 -15 -4 -13 -21 7 -17 21 -20 22 -15 5z"/>
<path d="M4764 2456 c-7 -28 9 -56 32 -56 20 0 17 18 -3 23 -15 4 -14 6 5 12
29 9 25 39 -5 43 -17 3 -24 -3 -29 -22z"/>
<path d="M4841 2438 c1 -28 3 -34 6 -18 3 14 9 29 14 35 14 14 11 25 -6 25
-11 0 -15 -11 -14 -42z"/>
<path d="M4967 2473 c-11 -10 -8 -73 3 -73 6 0 10 18 10 40 0 41 -2 45 -13 33z"/>
<path d="M5007 2450 c4 -19 7 -47 7 -62 -1 -15 2 -25 6 -23 11 7 34 105 26
112 -3 4 -6 -1 -6 -10 0 -22 -9 -21 -27 1 -12 15 -13 13 -6 -18z"/>
<path d="M5074 2465 c-15 -38 22 -86 41 -55 3 6 -1 10 -9 10 -9 0 -16 5 -16
10 0 6 9 10 21 10 15 0 19 4 15 16 -3 9 -6 18 -6 20 0 12 -41 2 -46 -11z"/>
<path d="M5145 2449 c12 -54 29 -67 39 -29 3 11 9 29 12 40 3 11 1 20 -5 20
-6 0 -11 -9 -11 -20 0 -11 -4 -20 -10 -20 -5 0 -10 6 -10 14 0 8 -5 18 -11 22
-8 4 -9 -4 -4 -27z"/>
<path d="M8074 2466 c-10 -25 0 -61 18 -64 21 -4 41 32 33 58 -7 23 -43 27
-51 6z m36 -27 c0 -24 -23 -21 -28 4 -2 10 3 17 12 17 10 0 16 -9 16 -21z"/>
<path d="M8187 2473 c-11 -10 -8 -61 3 -68 6 -4 10 10 10 34 0 42 -2 46 -13
34z"/>
<path d="M8227 2473 c-4 -3 -7 -19 -7 -35 0 -21 6 -31 24 -38 13 -5 26 -15 29
-22 3 -7 6 13 6 45 1 53 -1 57 -22 57 -13 0 -27 -3 -30 -7z m33 -34 c0 -24
-23 -21 -28 4 -2 10 3 17 12 17 10 0 16 -9 16 -21z"/>
<path d="M8506 2448 c7 -35 20 -55 29 -46 12 11 23 68 14 68 -5 0 -9 -7 -9
-15 0 -8 -4 -15 -10 -15 -5 0 -10 6 -10 14 0 8 -4 18 -10 21 -6 4 -7 -6 -4
-27z"/>
<path d="M8580 2462 c0 -10 5 -23 12 -30 9 -9 9 -12 0 -12 -7 0 -12 -4 -12
-10 0 -17 30 -11 37 6 4 11 -1 22 -12 30 -17 13 -17 14 -1 14 9 0 14 5 11 10
-10 17 -35 11 -35 -8z"/>
<path d="M8643 2445 c2 -36 5 -40 27 -40 21 0 26 5 28 33 2 18 -1 32 -7 32 -6
0 -11 -12 -11 -26 0 -35 -23 -26 -32 12 -5 25 -6 23 -5 -11z"/>
<path d="M8717 2474 c-11 -11 -8 -62 3 -69 6 -4 10 7 10 24 0 21 5 31 15 31
10 0 15 -10 15 -31 0 -17 4 -28 10 -24 6 3 10 18 10 31 0 35 23 26 32 -12 5
-25 6 -23 5 11 l-2 40 -45 3 c-25 2 -49 0 -53 -4z"/>
<path d="M8837 2459 c-8 -29 10 -61 31 -57 12 2 17 13 17 38 0 28 -4 36 -21
38 -15 2 -23 -4 -27 -19z m41 -16 c-5 -25 -28 -28 -28 -4 0 12 6 21 16 21 9 0
14 -7 12 -17z"/>
<path d="M11973 2440 c0 -25 2 -35 4 -22 2 12 2 32 0 45 -2 12 -4 2 -4 -23z"/>
<path d="M12109 2466 c9 -11 9 -20 2 -35 -15 -27 -14 -31 7 -31 13 0 18 9 18
40 1 34 -2 40 -19 40 -16 0 -17 -3 -8 -14z"/>
<path d="M12164 2466 c-12 -32 0 -61 29 -64 26 -3 27 -1 27 37 0 37 -2 41 -25
41 -14 0 -28 -6 -31 -14z m41 -26 c0 -7 -6 -15 -12 -17 -8 -3 -13 4 -13 17 0
13 5 20 13 18 6 -3 12 -11 12 -18z"/>
<path d="M12246 2448 c4 -18 7 -46 6 -62 -1 -17 2 -25 7 -20 12 13 31 74 30
98 0 19 -1 19 -11 -4 l-10 -25 -9 23 c-13 33 -22 27 -13 -10z"/>
<path d="M12317 2473 c-4 -3 -7 -19 -7 -35 0 -31 24 -48 43 -29 8 8 7 11 -6
11 -9 0 -17 5 -17 10 0 6 9 10 21 10 15 0 19 4 15 16 -3 9 -6 18 -6 20 0 7
-36 5 -43 -3z"/>
<path d="M12423 2459 c-6 -21 -7 -21 -21 -3 -13 18 -14 16 -8 -15 3 -19 8 -37
11 -40 9 -8 23 13 30 47 7 35 -3 45 -12 11z"/>
<path d="M8916 2443 c7 -31 21 -50 29 -41 9 8 24 68 18 68 -3 0 -12 -8 -19
-17 -13 -17 -13 -17 -14 0 0 9 -5 17 -10 17 -6 0 -8 -11 -4 -27z"/>
<path d="M7615 2380 c-3 -5 -1 -10 4 -10 6 0 11 5 11 10 0 6 -2 10 -4 10 -3 0
-8 -4 -11 -10z"/>
<path d="M7817 2244 c-10 -11 -9 -144 2 -144 5 0 11 26 13 58 5 58 -2 99 -15
86z"/>
<path d="M7620 2215 c-13 -33 -13 -45 0 -45 6 0 10 5 10 10 0 6 7 10 16 10 10
0 14 7 12 22 -5 32 -26 34 -38 3z"/>
<path d="M11430 2162 c0 -5 11 -21 25 -36 35 -37 86 -36 114 3 27 38 27 41 -9
41 -23 0 -31 -5 -36 -25 -8 -31 -25 -33 -21 -2 2 19 -3 22 -35 25 -21 2 -38
-1 -38 -6z"/>
<path d="M15480 1611 c0 -5 6 -14 14 -20 12 -10 17 -8 26 8 9 19 8 21 -15 21
-14 0 -25 -4 -25 -9z"/>
<path d="M17139 676 c-2 -3 -1512 -7 -3354 -11 -1843 -3 -3843 -7 -4445 -8
-602 -1 -2776 1 -4830 5 -2054 4 -3752 5 -3772 1 -61 -9 -44 -20 39 -25 65 -5
79 -9 96 -29 14 -17 40 -29 96 -41 42 -9 101 -25 131 -35 53 -17 360 -18 7905
-18 7586 0 7852 1 7905 18 30 10 89 26 132 35 42 10 85 25 96 35 13 12 47 22
93 28 80 10 84 12 76 34 -5 12 -23 15 -85 15 -43 0 -81 -2 -83 -4z"/>
</g>
</svg>
